<?xml version="1.0" encoding="UTF-8" standalone="no"?>
<!DOCTYPE svg PUBLIC "-//W3C//DTD SVG 1.1//EN"
 "http://www.w3.org/Graphics/SVG/1.1/DTD/svg11.dtd">
<!-- Generated by graphviz version 7.0.3 (20221126.0506)
 -->
<!-- Title: Vampire Pages: 1 -->
<svg width="230pt" height="336pt"
 viewBox="0.00 0.00 230.00 336.00" xmlns="http://www.w3.org/2000/svg" xmlns:xlink="http://www.w3.org/1999/xlink">
<g id="graph0" class="graph" transform="scale(1 1) rotate(0) translate(4 332)">
<title>Vampire</title>
<!-- Node1 -->
<g id="node1" class="node">
<title>Node1</title>
<g id="a_node1"><a xlink:title="Armazena todas informações referentes ao inimigo final do jogo, o vampiro.">
<polygon fill="#999999" stroke="#666666" points="121.5,-63 44.5,-63 44.5,0 121.5,0 121.5,-63"/>
<text text-anchor="middle" x="83" y="-51" font-family="Helvetica,sans-Serif" font-size="10.00">{Vampire</text>
<text text-anchor="start" x="52.5" y="-40" font-family="Helvetica,sans-Serif" font-size="10.00">||+ Vampire()</text>
<text text-anchor="start" x="52.5" y="-29" font-family="Helvetica,sans-Serif" font-size="10.00">+ ~Vampire()</text>
<text text-anchor="start" x="52.5" y="-18" font-family="Helvetica,sans-Serif" font-size="10.00">+ drainBlood()</text>
<text text-anchor="middle" x="83" y="-7" font-family="Helvetica,sans-Serif" font-size="10.00">}</text>
</a>
</g>
</g>
<!-- Node2 -->
<g id="node2" class="node">
<title>Node2</title>
<g id="a_node2"><a xlink:href="class_monster.html" target="_top" xlink:title="Armazena e processa ações e atributos dos monstros dentro durante o jogo.">
<polygon fill="white" stroke="#666666" points="134.5,-229 31.5,-229 31.5,-100 134.5,-100 134.5,-229"/>
<text text-anchor="middle" x="83" y="-217" font-family="Helvetica,sans-Serif" font-size="10.00">{Monster</text>
<text text-anchor="start" x="39.5" y="-206" font-family="Helvetica,sans-Serif" font-size="10.00">||+ Monster()</text>
<text text-anchor="start" x="39.5" y="-195" font-family="Helvetica,sans-Serif" font-size="10.00">+ ~Monster()</text>
<text text-anchor="start" x="39.5" y="-184" font-family="Helvetica,sans-Serif" font-size="10.00">+ getName()</text>
<text text-anchor="start" x="39.5" y="-173" font-family="Helvetica,sans-Serif" font-size="10.00">+ getCurrentHp()</text>
<text text-anchor="start" x="39.5" y="-162" font-family="Helvetica,sans-Serif" font-size="10.00">+ isAlive()</text>
<text text-anchor="start" x="39.5" y="-151" font-family="Helvetica,sans-Serif" font-size="10.00">+ currentHealth()</text>
<text text-anchor="start" x="39.5" y="-140" font-family="Helvetica,sans-Serif" font-size="10.00">+ takeDamage()</text>
<text text-anchor="start" x="39.5" y="-129" font-family="Helvetica,sans-Serif" font-size="10.00">+ monsterDamage()</text>
<text text-anchor="start" x="39.5" y="-118" font-family="Helvetica,sans-Serif" font-size="10.00">+ getMaximumHp()</text>
<text text-anchor="middle" x="83" y="-107" font-family="Helvetica,sans-Serif" font-size="10.00">}</text>
</a>
</g>
</g>
<!-- Node2&#45;&gt;Node1 -->
<g id="edge1" class="edge">
<title>Node2&#45;&gt;Node1</title>
<path fill="none" stroke="#63b8ff" d="M83,-88.05C83,-79.38 83,-70.94 83,-63.37"/>
<polygon fill="none" stroke="#63b8ff" points="79.5,-88.02 83,-98.02 86.5,-88.02 79.5,-88.02"/>
</g>
<!-- Node3 -->
<g id="node3" class="node">
<title>Node3</title>
<g id="a_node3"><a xlink:title=" ">
<polygon fill="white" stroke="#666666" points="44,-328 0,-328 0,-298 44,-298 44,-328"/>
<text text-anchor="middle" x="22" y="-316" font-family="Helvetica,sans-Serif" font-size="10.00">{string</text>
<text text-anchor="middle" x="22" y="-305" font-family="Helvetica,sans-Serif" font-size="10.00">||}</text>
</a>
</g>
</g>
<!-- Node3&#45;&gt;Node2 -->
<g id="edge2" class="edge">
<title>Node3&#45;&gt;Node2</title>
<path fill="none" stroke="#404040" d="M25.38,-297.53C28.7,-284.18 34.24,-263.92 41,-247 41.76,-245.11 42.54,-243.2 43.35,-241.29"/>
<polygon fill="none" stroke="#404040" points="43.36,-241.27 42.14,-234.16 48.23,-230.3 49.45,-237.41 43.36,-241.27"/>
<text text-anchor="middle" x="60" y="-261" font-family="Helvetica,sans-Serif" font-size="10.00"> #_name</text>
</g>
<!-- Node4 -->
<g id="node4" class="node">
<title>Node4</title>
<g id="a_node4"><a xlink:title=" ">
<polygon fill="white" stroke="#666666" points="98,-328 68,-328 68,-298 98,-298 98,-328"/>
<text text-anchor="middle" x="83" y="-316" font-family="Helvetica,sans-Serif" font-size="10.00">{int</text>
<text text-anchor="middle" x="83" y="-305" font-family="Helvetica,sans-Serif" font-size="10.00">||}</text>
</a>
</g>
</g>
<!-- Node4&#45;&gt;Node2 -->
<g id="edge3" class="edge">
<title>Node4&#45;&gt;Node2</title>
<path fill="none" stroke="#404040" d="M83,-297.69C83,-284.39 83,-263.48 83,-242.18"/>
<polygon fill="none" stroke="#404040" points="83,-242.2 79,-236.2 83,-230.2 87,-236.2 83,-242.2"/>
<text text-anchor="middle" x="111" y="-261" font-family="Helvetica,sans-Serif" font-size="10.00"> #_currentHp</text>
</g>
<!-- Node5 -->
<g id="node5" class="node">
<title>Node5</title>
<g id="a_node5"><a xlink:title=" ">
<polygon fill="white" stroke="#666666" points="179.5,-328 144.5,-328 144.5,-298 179.5,-298 179.5,-328"/>
<text text-anchor="middle" x="162" y="-316" font-family="Helvetica,sans-Serif" font-size="10.00">{uint</text>
<text text-anchor="middle" x="162" y="-305" font-family="Helvetica,sans-Serif" font-size="10.00">||}</text>
</a>
</g>
</g>
<!-- Node5&#45;&gt;Node2 -->
<g id="edge4" class="edge">
<title>Node5&#45;&gt;Node2</title>
<path fill="none" stroke="#404040" d="M158.39,-297.59C154.72,-284.09 148.39,-263.58 140,-247 138.94,-244.9 137.82,-242.78 136.67,-240.67"/>
<polygon fill="none" stroke="#404040" points="136.62,-240.58 130.15,-237.39 130.61,-230.19 137.08,-233.38 136.62,-240.58"/>
<text text-anchor="middle" x="187.5" y="-272" font-family="Helvetica,sans-Serif" font-size="10.00"> #_maxDamage</text>
<text text-anchor="middle" x="187.5" y="-261" font-family="Helvetica,sans-Serif" font-size="10.00">#_maxHp</text>
<text text-anchor="middle" x="187.5" y="-250" font-family="Helvetica,sans-Serif" font-size="10.00">#_minDamage</text>
</g>
</g>
</svg>
