<?xml version="1.0" encoding="UTF-8" standalone="no"?>
<!DOCTYPE svg PUBLIC "-//W3C//DTD SVG 1.1//EN"
 "http://www.w3.org/Graphics/SVG/1.1/DTD/svg11.dtd">
<!-- Generated by graphviz version 7.0.3 (20221126.0506)
 -->
<!-- Title: Item Pages: 1 -->
<svg width="115pt" height="181pt"
 viewBox="0.00 0.00 115.00 181.00" xmlns="http://www.w3.org/2000/svg" xmlns:xlink="http://www.w3.org/1999/xlink">
<g id="graph0" class="graph" transform="scale(1 1) rotate(0) translate(4 177)">
<title>Item</title>
<!-- Node1 -->
<g id="node1" class="node">
<title>Node1</title>
<g id="a_node1"><a xlink:title="Processa todos os atributos armazenados e funções dos itens do jogo.">
<polygon fill="#999999" stroke="#666666" points="94.5,-85 11.5,-85 11.5,0 94.5,0 94.5,-85"/>
<text text-anchor="middle" x="53" y="-73" font-family="Helvetica,sans-Serif" font-size="10.00">{Item</text>
<text text-anchor="start" x="19.5" y="-62" font-family="Helvetica,sans-Serif" font-size="10.00">||+ Item()</text>
<text text-anchor="start" x="19.5" y="-51" font-family="Helvetica,sans-Serif" font-size="10.00">+ getByName()</text>
<text text-anchor="start" x="19.5" y="-40" font-family="Helvetica,sans-Serif" font-size="10.00">+ getName()</text>
<text text-anchor="start" x="19.5" y="-29" font-family="Helvetica,sans-Serif" font-size="10.00">+ getPrice()</text>
<text text-anchor="start" x="19.5" y="-18" font-family="Helvetica,sans-Serif" font-size="10.00">+ operator&lt;()</text>
<text text-anchor="middle" x="53" y="-7" font-family="Helvetica,sans-Serif" font-size="10.00">}</text>
</a>
</g>
</g>
<!-- Node2 -->
<g id="node2" class="node">
<title>Node2</title>
<g id="a_node2"><a xlink:title=" ">
<polygon fill="white" stroke="#666666" points="44,-173 0,-173 0,-143 44,-143 44,-173"/>
<text text-anchor="middle" x="22" y="-161" font-family="Helvetica,sans-Serif" font-size="10.00">{string</text>
<text text-anchor="middle" x="22" y="-150" font-family="Helvetica,sans-Serif" font-size="10.00">||}</text>
</a>
</g>
</g>
<!-- Node2&#45;&gt;Node1 -->
<g id="edge1" class="edge">
<title>Node2&#45;&gt;Node1</title>
<path fill="none" stroke="#404040" d="M20.54,-142.56C19.84,-131.55 19.75,-116.11 23,-103 23.46,-101.14 23.99,-99.27 24.57,-97.4"/>
<polygon fill="none" stroke="#404040" points="24.62,-97.27 22.95,-90.26 28.79,-86.02 30.45,-93.04 24.62,-97.27"/>
<text text-anchor="middle" x="42.5" y="-111.5" font-family="Helvetica,sans-Serif" font-size="10.00"> +_name</text>
</g>
<!-- Node3 -->
<g id="node3" class="node">
<title>Node3</title>
<g id="a_node3"><a xlink:title=" ">
<polygon fill="white" stroke="#666666" points="99,-173 69,-173 69,-143 99,-143 99,-173"/>
<text text-anchor="middle" x="84" y="-161" font-family="Helvetica,sans-Serif" font-size="10.00">{int</text>
<text text-anchor="middle" x="84" y="-150" font-family="Helvetica,sans-Serif" font-size="10.00">||}</text>
</a>
</g>
</g>
<!-- Node3&#45;&gt;Node1 -->
<g id="edge2" class="edge">
<title>Node3&#45;&gt;Node1</title>
<path fill="none" stroke="#404040" d="M80.07,-142.63C76.93,-131.12 72.32,-114.22 67.78,-97.62"/>
<polygon fill="none" stroke="#404040" points="67.76,-97.53 62.32,-92.79 64.59,-85.95 70.03,-90.68 67.76,-97.53"/>
<text text-anchor="middle" x="90.5" y="-117" font-family="Helvetica,sans-Serif" font-size="10.00"> +_id</text>
<text text-anchor="middle" x="90.5" y="-106" font-family="Helvetica,sans-Serif" font-size="10.00">+_price</text>
</g>
</g>
</svg>
