<?xml version="1.0" encoding="UTF-8" standalone="no"?>
<!DOCTYPE svg PUBLIC "-//W3C//DTD SVG 1.1//EN"
 "http://www.w3.org/Graphics/SVG/1.1/DTD/svg11.dtd">
<!-- Generated by graphviz version 7.0.3 (20221126.0506)
 -->
<!-- Title: Inventory Pages: 1 -->
<svg width="213pt" height="368pt"
 viewBox="0.00 0.00 213.00 368.00" xmlns="http://www.w3.org/2000/svg" xmlns:xlink="http://www.w3.org/1999/xlink">
<g id="graph0" class="graph" transform="scale(1 1) rotate(0) translate(4 364)">
<title>Inventory</title>
<!-- Node1 -->
<g id="node1" class="node">
<title>Node1</title>
<g id="a_node1"><a xlink:title="Armazena e processa o inventário.">
<polygon fill="#999999" stroke="#666666" points="156.5,-140 55.5,-140 55.5,0 156.5,0 156.5,-140"/>
<text text-anchor="middle" x="106" y="-128" font-family="Helvetica,sans-Serif" font-size="10.00">{Inventory</text>
<text text-anchor="start" x="63.5" y="-117" font-family="Helvetica,sans-Serif" font-size="10.00">||+ Inventory()</text>
<text text-anchor="start" x="63.5" y="-106" font-family="Helvetica,sans-Serif" font-size="10.00">+ ~Inventory()</text>
<text text-anchor="start" x="63.5" y="-95" font-family="Helvetica,sans-Serif" font-size="10.00">+ createInventory()</text>
<text text-anchor="start" x="63.5" y="-84" font-family="Helvetica,sans-Serif" font-size="10.00">+ useItem()</text>
<text text-anchor="start" x="63.5" y="-73" font-family="Helvetica,sans-Serif" font-size="10.00">+ subtractItem()</text>
<text text-anchor="start" x="63.5" y="-62" font-family="Helvetica,sans-Serif" font-size="10.00">+ displayInventory()</text>
<text text-anchor="start" x="63.5" y="-51" font-family="Helvetica,sans-Serif" font-size="10.00">+ operator&lt;()</text>
<text text-anchor="start" x="63.5" y="-40" font-family="Helvetica,sans-Serif" font-size="10.00">+ addItem()</text>
<text text-anchor="start" x="63.5" y="-29" font-family="Helvetica,sans-Serif" font-size="10.00">+ checkValue()</text>
<text text-anchor="start" x="63.5" y="-18" font-family="Helvetica,sans-Serif" font-size="10.00">+ getItemN()</text>
<text text-anchor="middle" x="106" y="-7" font-family="Helvetica,sans-Serif" font-size="10.00">}</text>
</a>
</g>
</g>
<!-- Node2 -->
<g id="node2" class="node">
<title>Node2</title>
<g id="a_node2"><a xlink:href="class_item.html" target="_top" xlink:title="Processa todos os atributos armazenados e funções dos itens do jogo.">
<polygon fill="white" stroke="#666666" points="94.5,-272 11.5,-272 11.5,-187 94.5,-187 94.5,-272"/>
<text text-anchor="middle" x="53" y="-260" font-family="Helvetica,sans-Serif" font-size="10.00">{Item</text>
<text text-anchor="start" x="19.5" y="-249" font-family="Helvetica,sans-Serif" font-size="10.00">||+ Item()</text>
<text text-anchor="start" x="19.5" y="-238" font-family="Helvetica,sans-Serif" font-size="10.00">+ getByName()</text>
<text text-anchor="start" x="19.5" y="-227" font-family="Helvetica,sans-Serif" font-size="10.00">+ getName()</text>
<text text-anchor="start" x="19.5" y="-216" font-family="Helvetica,sans-Serif" font-size="10.00">+ getPrice()</text>
<text text-anchor="start" x="19.5" y="-205" font-family="Helvetica,sans-Serif" font-size="10.00">+ operator&lt;()</text>
<text text-anchor="middle" x="53" y="-194" font-family="Helvetica,sans-Serif" font-size="10.00">}</text>
</a>
</g>
</g>
<!-- Node2&#45;&gt;Node1 -->
<g id="edge1" class="edge">
<title>Node2&#45;&gt;Node1</title>
<path fill="none" stroke="#63b8ff" d="M70.65,-176.05C74.49,-164.63 78.62,-152.37 82.64,-140.41"/>
<polygon fill="none" stroke="#63b8ff" points="67.42,-174.68 67.55,-185.27 74.05,-176.91 67.42,-174.68"/>
</g>
<!-- Node3 -->
<g id="node3" class="node">
<title>Node3</title>
<g id="a_node3"><a xlink:title=" ">
<polygon fill="white" stroke="#666666" points="44,-360 0,-360 0,-330 44,-330 44,-360"/>
<text text-anchor="middle" x="22" y="-348" font-family="Helvetica,sans-Serif" font-size="10.00">{string</text>
<text text-anchor="middle" x="22" y="-337" font-family="Helvetica,sans-Serif" font-size="10.00">||}</text>
</a>
</g>
</g>
<!-- Node3&#45;&gt;Node2 -->
<g id="edge2" class="edge">
<title>Node3&#45;&gt;Node2</title>
<path fill="none" stroke="#404040" d="M20.54,-329.56C19.84,-318.55 19.75,-303.11 23,-290 23.46,-288.14 23.99,-286.27 24.57,-284.4"/>
<polygon fill="none" stroke="#404040" points="24.62,-284.27 22.95,-277.26 28.79,-273.02 30.45,-280.04 24.62,-284.27"/>
<text text-anchor="middle" x="42.5" y="-298.5" font-family="Helvetica,sans-Serif" font-size="10.00"> +_name</text>
</g>
<!-- Node4 -->
<g id="node4" class="node">
<title>Node4</title>
<g id="a_node4"><a xlink:title=" ">
<polygon fill="white" stroke="#666666" points="99,-360 69,-360 69,-330 99,-330 99,-360"/>
<text text-anchor="middle" x="84" y="-348" font-family="Helvetica,sans-Serif" font-size="10.00">{int</text>
<text text-anchor="middle" x="84" y="-337" font-family="Helvetica,sans-Serif" font-size="10.00">||}</text>
</a>
</g>
</g>
<!-- Node4&#45;&gt;Node2 -->
<g id="edge3" class="edge">
<title>Node4&#45;&gt;Node2</title>
<path fill="none" stroke="#404040" d="M80.07,-329.63C76.93,-318.12 72.32,-301.22 67.78,-284.62"/>
<polygon fill="none" stroke="#404040" points="67.76,-284.53 62.32,-279.79 64.59,-272.95 70.03,-277.68 67.76,-284.53"/>
<text text-anchor="middle" x="91.5" y="-304" font-family="Helvetica,sans-Serif" font-size="10.00"> +_id</text>
<text text-anchor="middle" x="91.5" y="-293" font-family="Helvetica,sans-Serif" font-size="10.00">+_price</text>
</g>
<!-- Node5 -->
<g id="node5" class="node">
<title>Node5</title>
<g id="a_node5"><a xlink:title=" ">
<polygon fill="white" stroke="#666666" points="205,-244.5 113,-244.5 113,-214.5 205,-214.5 205,-244.5"/>
<text text-anchor="middle" x="159" y="-232.5" font-family="Helvetica,sans-Serif" font-size="10.00">{map&lt; Item, int &gt;</text>
<text text-anchor="middle" x="159" y="-221.5" font-family="Helvetica,sans-Serif" font-size="10.00">||}</text>
</a>
</g>
</g>
<!-- Node5&#45;&gt;Node1 -->
<g id="edge4" class="edge">
<title>Node5&#45;&gt;Node1</title>
<path fill="none" stroke="#404040" d="M154.2,-214.25C149.34,-199.8 141.41,-176.23 133.37,-152.35"/>
<polygon fill="none" stroke="#404040" points="133.42,-152.48 127.71,-148.07 129.59,-141.11 135.3,-145.52 133.42,-152.48"/>
<text text-anchor="middle" x="164.5" y="-161" font-family="Helvetica,sans-Serif" font-size="10.00"> +_inventory</text>
</g>
</g>
</svg>
