<?xml version="1.0" encoding="UTF-8" standalone="no"?>
<!DOCTYPE svg PUBLIC "-//W3C//DTD SVG 1.1//EN"
 "http://www.w3.org/Graphics/SVG/1.1/DTD/svg11.dtd">
<!-- Generated by graphviz version 7.0.3 (20221126.0506)
 -->
<!-- Title: Enemy Pages: 1 -->
<svg width="230pt" height="347pt"
 viewBox="0.00 0.00 230.00 347.00" xmlns="http://www.w3.org/2000/svg" xmlns:xlink="http://www.w3.org/1999/xlink">
<g id="graph0" class="graph" transform="scale(1 1) rotate(0) translate(4 343)">
<title>Enemy</title>
<!-- Node1 -->
<g id="node1" class="node">
<title>Node1</title>
<g id="a_node1"><a xlink:title="Armazena todas informações referentes ao ataque e valor do monstro em ouro e experiência.">
<polygon fill="#999999" stroke="#666666" points="121,-74 45,-74 45,0 121,0 121,-74"/>
<text text-anchor="middle" x="83" y="-62" font-family="Helvetica,sans-Serif" font-size="10.00">{Enemy</text>
<text text-anchor="start" x="53" y="-51" font-family="Helvetica,sans-Serif" font-size="10.00">||+ Enemy()</text>
<text text-anchor="start" x="53" y="-40" font-family="Helvetica,sans-Serif" font-size="10.00">+ ~Enemy()</text>
<text text-anchor="start" x="53" y="-29" font-family="Helvetica,sans-Serif" font-size="10.00">+ goldWorth()</text>
<text text-anchor="start" x="53" y="-18" font-family="Helvetica,sans-Serif" font-size="10.00">+ xpWorth()</text>
<text text-anchor="middle" x="83" y="-7" font-family="Helvetica,sans-Serif" font-size="10.00">}</text>
</a>
</g>
</g>
<!-- Node2 -->
<g id="node2" class="node">
<title>Node2</title>
<g id="a_node2"><a xlink:href="class_monster.html" target="_top" xlink:title="Armazena e processa ações e atributos dos monstros dentro durante o jogo.">
<polygon fill="white" stroke="#666666" points="134.5,-240 31.5,-240 31.5,-111 134.5,-111 134.5,-240"/>
<text text-anchor="middle" x="83" y="-228" font-family="Helvetica,sans-Serif" font-size="10.00">{Monster</text>
<text text-anchor="start" x="39.5" y="-217" font-family="Helvetica,sans-Serif" font-size="10.00">||+ Monster()</text>
<text text-anchor="start" x="39.5" y="-206" font-family="Helvetica,sans-Serif" font-size="10.00">+ ~Monster()</text>
<text text-anchor="start" x="39.5" y="-195" font-family="Helvetica,sans-Serif" font-size="10.00">+ getName()</text>
<text text-anchor="start" x="39.5" y="-184" font-family="Helvetica,sans-Serif" font-size="10.00">+ getCurrentHp()</text>
<text text-anchor="start" x="39.5" y="-173" font-family="Helvetica,sans-Serif" font-size="10.00">+ isAlive()</text>
<text text-anchor="start" x="39.5" y="-162" font-family="Helvetica,sans-Serif" font-size="10.00">+ currentHealth()</text>
<text text-anchor="start" x="39.5" y="-151" font-family="Helvetica,sans-Serif" font-size="10.00">+ takeDamage()</text>
<text text-anchor="start" x="39.5" y="-140" font-family="Helvetica,sans-Serif" font-size="10.00">+ monsterDamage()</text>
<text text-anchor="start" x="39.5" y="-129" font-family="Helvetica,sans-Serif" font-size="10.00">+ getMaximumHp()</text>
<text text-anchor="middle" x="83" y="-118" font-family="Helvetica,sans-Serif" font-size="10.00">}</text>
</a>
</g>
</g>
<!-- Node2&#45;&gt;Node1 -->
<g id="edge1" class="edge">
<title>Node2&#45;&gt;Node1</title>
<path fill="none" stroke="#63b8ff" d="M83,-99.22C83,-90.56 83,-82.06 83,-74.27"/>
<polygon fill="none" stroke="#63b8ff" points="79.5,-99.13 83,-109.13 86.5,-99.13 79.5,-99.13"/>
</g>
<!-- Node3 -->
<g id="node3" class="node">
<title>Node3</title>
<g id="a_node3"><a xlink:title=" ">
<polygon fill="white" stroke="#666666" points="44,-339 0,-339 0,-309 44,-309 44,-339"/>
<text text-anchor="middle" x="22" y="-327" font-family="Helvetica,sans-Serif" font-size="10.00">{string</text>
<text text-anchor="middle" x="22" y="-316" font-family="Helvetica,sans-Serif" font-size="10.00">||}</text>
</a>
</g>
</g>
<!-- Node3&#45;&gt;Node2 -->
<g id="edge2" class="edge">
<title>Node3&#45;&gt;Node2</title>
<path fill="none" stroke="#404040" d="M25.38,-308.53C28.7,-295.18 34.24,-274.92 41,-258 41.76,-256.11 42.54,-254.2 43.35,-252.29"/>
<polygon fill="none" stroke="#404040" points="43.36,-252.27 42.14,-245.16 48.23,-241.3 49.45,-248.41 43.36,-252.27"/>
<text text-anchor="middle" x="60" y="-272" font-family="Helvetica,sans-Serif" font-size="10.00"> #_name</text>
</g>
<!-- Node4 -->
<g id="node4" class="node">
<title>Node4</title>
<g id="a_node4"><a xlink:title=" ">
<polygon fill="white" stroke="#666666" points="98,-339 68,-339 68,-309 98,-309 98,-339"/>
<text text-anchor="middle" x="83" y="-327" font-family="Helvetica,sans-Serif" font-size="10.00">{int</text>
<text text-anchor="middle" x="83" y="-316" font-family="Helvetica,sans-Serif" font-size="10.00">||}</text>
</a>
</g>
</g>
<!-- Node4&#45;&gt;Node2 -->
<g id="edge3" class="edge">
<title>Node4&#45;&gt;Node2</title>
<path fill="none" stroke="#404040" d="M83,-308.69C83,-295.39 83,-274.48 83,-253.18"/>
<polygon fill="none" stroke="#404040" points="83,-253.2 79,-247.2 83,-241.2 87,-247.2 83,-253.2"/>
<text text-anchor="middle" x="111" y="-272" font-family="Helvetica,sans-Serif" font-size="10.00"> #_currentHp</text>
</g>
<!-- Node5 -->
<g id="node5" class="node">
<title>Node5</title>
<g id="a_node5"><a xlink:title=" ">
<polygon fill="white" stroke="#666666" points="179.5,-339 144.5,-339 144.5,-309 179.5,-309 179.5,-339"/>
<text text-anchor="middle" x="162" y="-327" font-family="Helvetica,sans-Serif" font-size="10.00">{uint</text>
<text text-anchor="middle" x="162" y="-316" font-family="Helvetica,sans-Serif" font-size="10.00">||}</text>
</a>
</g>
</g>
<!-- Node5&#45;&gt;Node2 -->
<g id="edge4" class="edge">
<title>Node5&#45;&gt;Node2</title>
<path fill="none" stroke="#404040" d="M158.39,-308.59C154.72,-295.09 148.39,-274.58 140,-258 138.94,-255.9 137.82,-253.78 136.67,-251.67"/>
<polygon fill="none" stroke="#404040" points="136.62,-251.58 130.15,-248.39 130.61,-241.19 137.08,-244.38 136.62,-251.58"/>
<text text-anchor="middle" x="187.5" y="-283" font-family="Helvetica,sans-Serif" font-size="10.00"> #_maxDamage</text>
<text text-anchor="middle" x="187.5" y="-272" font-family="Helvetica,sans-Serif" font-size="10.00">#_maxHp</text>
<text text-anchor="middle" x="187.5" y="-261" font-family="Helvetica,sans-Serif" font-size="10.00">#_minDamage</text>
</g>
</g>
</svg>
