<?xml version="1.0" encoding="UTF-8" standalone="no"?>
<!DOCTYPE svg PUBLIC "-//W3C//DTD SVG 1.1//EN"
 "http://www.w3.org/Graphics/SVG/1.1/DTD/svg11.dtd">
<!-- Generated by graphviz version 7.0.3 (20221126.0506)
 -->
<!-- Title: Weapon Pages: 1 -->
<svg width="115pt" height="303pt"
 viewBox="0.00 0.00 115.00 303.00" xmlns="http://www.w3.org/2000/svg" xmlns:xlink="http://www.w3.org/1999/xlink">
<g id="graph0" class="graph" transform="scale(1 1) rotate(0) translate(4 299)">
<title>Weapon</title>
<!-- Node1 -->
<g id="node1" class="node">
<title>Node1</title>
<g id="a_node1"><a xlink:title="Contém todos os atributos armazenados e funções dos objetos do tipo arma do jogo.">
<polygon fill="#999999" stroke="#666666" points="100,-85 6,-85 6,0 100,0 100,-85"/>
<text text-anchor="middle" x="53" y="-73" font-family="Helvetica,sans-Serif" font-size="10.00">{Weapon</text>
<text text-anchor="start" x="14" y="-62" font-family="Helvetica,sans-Serif" font-size="10.00">||+ Weapon()</text>
<text text-anchor="start" x="14" y="-51" font-family="Helvetica,sans-Serif" font-size="10.00">+ getFromName()</text>
<text text-anchor="start" x="14" y="-40" font-family="Helvetica,sans-Serif" font-size="10.00">+ getName()</text>
<text text-anchor="start" x="14" y="-29" font-family="Helvetica,sans-Serif" font-size="10.00">+ damageRange()</text>
<text text-anchor="start" x="14" y="-18" font-family="Helvetica,sans-Serif" font-size="10.00">+ getDamage()</text>
<text text-anchor="middle" x="53" y="-7" font-family="Helvetica,sans-Serif" font-size="10.00">}</text>
</a>
</g>
</g>
<!-- Node2 -->
<g id="node2" class="node">
<title>Node2</title>
<g id="a_node2"><a xlink:href="class_item.html" target="_top" xlink:title="Processa todos os atributos armazenados e funções dos itens do jogo.">
<polygon fill="white" stroke="#666666" points="94.5,-207 11.5,-207 11.5,-122 94.5,-122 94.5,-207"/>
<text text-anchor="middle" x="53" y="-195" font-family="Helvetica,sans-Serif" font-size="10.00">{Item</text>
<text text-anchor="start" x="19.5" y="-184" font-family="Helvetica,sans-Serif" font-size="10.00">||+ Item()</text>
<text text-anchor="start" x="19.5" y="-173" font-family="Helvetica,sans-Serif" font-size="10.00">+ getByName()</text>
<text text-anchor="start" x="19.5" y="-162" font-family="Helvetica,sans-Serif" font-size="10.00">+ getName()</text>
<text text-anchor="start" x="19.5" y="-151" font-family="Helvetica,sans-Serif" font-size="10.00">+ getPrice()</text>
<text text-anchor="start" x="19.5" y="-140" font-family="Helvetica,sans-Serif" font-size="10.00">+ operator&lt;()</text>
<text text-anchor="middle" x="53" y="-129" font-family="Helvetica,sans-Serif" font-size="10.00">}</text>
</a>
</g>
</g>
<!-- Node2&#45;&gt;Node1 -->
<g id="edge1" class="edge">
<title>Node2&#45;&gt;Node1</title>
<path fill="none" stroke="#63b8ff" d="M53,-110.27C53,-101.88 53,-93.32 53,-85.24"/>
<polygon fill="none" stroke="#63b8ff" points="49.5,-110.02 53,-120.02 56.5,-110.02 49.5,-110.02"/>
</g>
<!-- Node3 -->
<g id="node3" class="node">
<title>Node3</title>
<g id="a_node3"><a xlink:title=" ">
<polygon fill="white" stroke="#666666" points="44,-295 0,-295 0,-265 44,-265 44,-295"/>
<text text-anchor="middle" x="22" y="-283" font-family="Helvetica,sans-Serif" font-size="10.00">{string</text>
<text text-anchor="middle" x="22" y="-272" font-family="Helvetica,sans-Serif" font-size="10.00">||}</text>
</a>
</g>
</g>
<!-- Node3&#45;&gt;Node2 -->
<g id="edge2" class="edge">
<title>Node3&#45;&gt;Node2</title>
<path fill="none" stroke="#404040" d="M20.54,-264.56C19.84,-253.55 19.75,-238.11 23,-225 23.46,-223.14 23.99,-221.27 24.57,-219.4"/>
<polygon fill="none" stroke="#404040" points="24.62,-219.27 22.95,-212.26 28.79,-208.02 30.45,-215.04 24.62,-219.27"/>
<text text-anchor="middle" x="42.5" y="-233.5" font-family="Helvetica,sans-Serif" font-size="10.00"> +_name</text>
</g>
<!-- Node4 -->
<g id="node4" class="node">
<title>Node4</title>
<g id="a_node4"><a xlink:title=" ">
<polygon fill="white" stroke="#666666" points="99,-295 69,-295 69,-265 99,-265 99,-295"/>
<text text-anchor="middle" x="84" y="-283" font-family="Helvetica,sans-Serif" font-size="10.00">{int</text>
<text text-anchor="middle" x="84" y="-272" font-family="Helvetica,sans-Serif" font-size="10.00">||}</text>
</a>
</g>
</g>
<!-- Node4&#45;&gt;Node2 -->
<g id="edge3" class="edge">
<title>Node4&#45;&gt;Node2</title>
<path fill="none" stroke="#404040" d="M80.07,-264.63C76.93,-253.12 72.32,-236.22 67.78,-219.62"/>
<polygon fill="none" stroke="#404040" points="67.76,-219.53 62.32,-214.79 64.59,-207.95 70.03,-212.68 67.76,-219.53"/>
<text text-anchor="middle" x="90.5" y="-239" font-family="Helvetica,sans-Serif" font-size="10.00"> +_id</text>
<text text-anchor="middle" x="90.5" y="-228" font-family="Helvetica,sans-Serif" font-size="10.00">+_price</text>
</g>
</g>
</svg>
