<?xml version="1.0" encoding="UTF-8" standalone="no"?>
<!DOCTYPE svg PUBLIC "-//W3C//DTD SVG 1.1//EN"
 "http://www.w3.org/Graphics/SVG/1.1/DTD/svg11.dtd">
<!-- Generated by graphviz version 7.0.3 (20221126.0506)
 -->
<!-- Title: Monster Pages: 1 -->
<svg width="230pt" height="236pt"
 viewBox="0.00 0.00 230.00 236.00" xmlns="http://www.w3.org/2000/svg" xmlns:xlink="http://www.w3.org/1999/xlink">
<g id="graph0" class="graph" transform="scale(1 1) rotate(0) translate(4 232)">
<title>Monster</title>
<!-- Node1 -->
<g id="node1" class="node">
<title>Node1</title>
<g id="a_node1"><a xlink:title="Armazena e processa ações e atributos dos monstros dentro durante o jogo.">
<polygon fill="#999999" stroke="#666666" points="134.5,-129 31.5,-129 31.5,0 134.5,0 134.5,-129"/>
<text text-anchor="middle" x="83" y="-117" font-family="Helvetica,sans-Serif" font-size="10.00">{Monster</text>
<text text-anchor="start" x="39.5" y="-106" font-family="Helvetica,sans-Serif" font-size="10.00">||+ Monster()</text>
<text text-anchor="start" x="39.5" y="-95" font-family="Helvetica,sans-Serif" font-size="10.00">+ ~Monster()</text>
<text text-anchor="start" x="39.5" y="-84" font-family="Helvetica,sans-Serif" font-size="10.00">+ getName()</text>
<text text-anchor="start" x="39.5" y="-73" font-family="Helvetica,sans-Serif" font-size="10.00">+ getCurrentHp()</text>
<text text-anchor="start" x="39.5" y="-62" font-family="Helvetica,sans-Serif" font-size="10.00">+ isAlive()</text>
<text text-anchor="start" x="39.5" y="-51" font-family="Helvetica,sans-Serif" font-size="10.00">+ currentHealth()</text>
<text text-anchor="start" x="39.5" y="-40" font-family="Helvetica,sans-Serif" font-size="10.00">+ takeDamage()</text>
<text text-anchor="start" x="39.5" y="-29" font-family="Helvetica,sans-Serif" font-size="10.00">+ monsterDamage()</text>
<text text-anchor="start" x="39.5" y="-18" font-family="Helvetica,sans-Serif" font-size="10.00">+ getMaximumHp()</text>
<text text-anchor="middle" x="83" y="-7" font-family="Helvetica,sans-Serif" font-size="10.00">}</text>
</a>
</g>
</g>
<!-- Node2 -->
<g id="node2" class="node">
<title>Node2</title>
<g id="a_node2"><a xlink:title=" ">
<polygon fill="white" stroke="#666666" points="44,-228 0,-228 0,-198 44,-198 44,-228"/>
<text text-anchor="middle" x="22" y="-216" font-family="Helvetica,sans-Serif" font-size="10.00">{string</text>
<text text-anchor="middle" x="22" y="-205" font-family="Helvetica,sans-Serif" font-size="10.00">||}</text>
</a>
</g>
</g>
<!-- Node2&#45;&gt;Node1 -->
<g id="edge1" class="edge">
<title>Node2&#45;&gt;Node1</title>
<path fill="none" stroke="#404040" d="M25.38,-197.53C28.7,-184.18 34.24,-163.92 41,-147 41.76,-145.11 42.54,-143.2 43.35,-141.29"/>
<polygon fill="none" stroke="#404040" points="43.36,-141.27 42.14,-134.16 48.23,-130.3 49.45,-137.41 43.36,-141.27"/>
<text text-anchor="middle" x="60" y="-161" font-family="Helvetica,sans-Serif" font-size="10.00"> #_name</text>
</g>
<!-- Node3 -->
<g id="node3" class="node">
<title>Node3</title>
<g id="a_node3"><a xlink:title=" ">
<polygon fill="white" stroke="#666666" points="98,-228 68,-228 68,-198 98,-198 98,-228"/>
<text text-anchor="middle" x="83" y="-216" font-family="Helvetica,sans-Serif" font-size="10.00">{int</text>
<text text-anchor="middle" x="83" y="-205" font-family="Helvetica,sans-Serif" font-size="10.00">||}</text>
</a>
</g>
</g>
<!-- Node3&#45;&gt;Node1 -->
<g id="edge2" class="edge">
<title>Node3&#45;&gt;Node1</title>
<path fill="none" stroke="#404040" d="M83,-197.69C83,-184.39 83,-163.48 83,-142.18"/>
<polygon fill="none" stroke="#404040" points="83,-142.2 79,-136.2 83,-130.2 87,-136.2 83,-142.2"/>
<text text-anchor="middle" x="111" y="-161" font-family="Helvetica,sans-Serif" font-size="10.00"> #_currentHp</text>
</g>
<!-- Node4 -->
<g id="node4" class="node">
<title>Node4</title>
<g id="a_node4"><a xlink:title=" ">
<polygon fill="white" stroke="#666666" points="179.5,-228 144.5,-228 144.5,-198 179.5,-198 179.5,-228"/>
<text text-anchor="middle" x="162" y="-216" font-family="Helvetica,sans-Serif" font-size="10.00">{uint</text>
<text text-anchor="middle" x="162" y="-205" font-family="Helvetica,sans-Serif" font-size="10.00">||}</text>
</a>
</g>
</g>
<!-- Node4&#45;&gt;Node1 -->
<g id="edge3" class="edge">
<title>Node4&#45;&gt;Node1</title>
<path fill="none" stroke="#404040" d="M158.39,-197.59C154.72,-184.09 148.39,-163.58 140,-147 138.94,-144.9 137.82,-142.78 136.67,-140.67"/>
<polygon fill="none" stroke="#404040" points="136.62,-140.58 130.15,-137.39 130.61,-130.19 137.08,-133.38 136.62,-140.58"/>
<text text-anchor="middle" x="187.5" y="-172" font-family="Helvetica,sans-Serif" font-size="10.00"> #_maxDamage</text>
<text text-anchor="middle" x="187.5" y="-161" font-family="Helvetica,sans-Serif" font-size="10.00">#_maxHp</text>
<text text-anchor="middle" x="187.5" y="-150" font-family="Helvetica,sans-Serif" font-size="10.00">#_minDamage</text>
</g>
</g>
</svg>
