<?xml version="1.0" encoding="UTF-8" standalone="no"?>
<!DOCTYPE svg PUBLIC "-//W3C//DTD SVG 1.1//EN"
 "http://www.w3.org/Graphics/SVG/1.1/DTD/svg11.dtd">
<!-- Generated by graphviz version 7.0.3 (20221126.0506)
 -->
<!-- Title: Z:/home/lchinu/PDS&#45;II&#45;TP&#45;development/include/gameEvents.hpp Pages: 1 -->
<svg width="1034pt" height="379pt"
 viewBox="0.00 0.00 1033.86 379.00" xmlns="http://www.w3.org/2000/svg" xmlns:xlink="http://www.w3.org/1999/xlink">
<g id="graph0" class="graph" transform="scale(1 1) rotate(0) translate(4 375)">
<title>Z:/home/lchinu/PDS&#45;II&#45;TP&#45;development/include/gameEvents.hpp</title>
<!-- Node1 -->
<g id="node1" class="node">
<title>Node1</title>
<g id="a_node1"><a xlink:title="Classe principal com a lógica de gameEvents.">
<polygon fill="#999999" stroke="#666666" points="515.86,-371 385.86,-371 385.86,-330 515.86,-330 515.86,-371"/>
<text text-anchor="start" x="393.86" y="-359" font-family="Helvetica,sans-Serif" font-size="10.00">Z:/home/lchinu/PDS</text>
<text text-anchor="start" x="393.86" y="-348" font-family="Helvetica,sans-Serif" font-size="10.00">&#45;II&#45;TP&#45;development/include</text>
<text text-anchor="middle" x="450.86" y="-337" font-family="Helvetica,sans-Serif" font-size="10.00">/gameEvents.hpp</text>
</a>
</g>
</g>
<!-- Node2 -->
<g id="node2" class="node">
<title>Node2</title>
<g id="a_node2"><a xlink:title=" ">
<polygon fill="#e0e0e0" stroke="#999999" points="598.86,-19 544.86,-19 544.86,0 598.86,0 598.86,-19"/>
<text text-anchor="middle" x="571.86" y="-7" font-family="Helvetica,sans-Serif" font-size="10.00">iostream</text>
</a>
</g>
</g>
<!-- Node1&#45;&gt;Node2 -->
<g id="edge1" class="edge">
<title>Node1&#45;&gt;Node2</title>
<path fill="none" stroke="#63b8ff" d="M516.26,-349.6C666.97,-348.06 1025.86,-333.59 1025.86,-230.5 1025.86,-230.5 1025.86,-230.5 1025.86,-118.5 1025.86,-33.39 720.09,-15.24 610.42,-11.46"/>
<polygon fill="#63b8ff" stroke="#63b8ff" points="610.86,-7.98 600.75,-11.15 610.64,-14.97 610.86,-7.98"/>
</g>
<!-- Node3 -->
<g id="node3" class="node">
<title>Node3</title>
<g id="a_node3"><a xlink:title=" ">
<polygon fill="#e0e0e0" stroke="#999999" points="78.86,-294 28.86,-294 28.86,-275 78.86,-275 78.86,-294"/>
<text text-anchor="middle" x="53.86" y="-282" font-family="Helvetica,sans-Serif" font-size="10.00">iomanip</text>
</a>
</g>
</g>
<!-- Node1&#45;&gt;Node3 -->
<g id="edge2" class="edge">
<title>Node1&#45;&gt;Node3</title>
<path fill="none" stroke="#63b8ff" d="M385.66,-340.61C313.75,-330.52 194.73,-312.98 92.86,-294 91.88,-293.82 90.88,-293.63 89.88,-293.43"/>
<polygon fill="#63b8ff" stroke="#63b8ff" points="90.97,-290.08 80.48,-291.51 89.57,-296.94 90.97,-290.08"/>
</g>
<!-- Node4 -->
<g id="node4" class="node">
<title>Node4</title>
<g id="a_node4"><a xlink:title=" ">
<polygon fill="#e0e0e0" stroke="#999999" points="256.36,-19 215.36,-19 215.36,0 256.36,0 256.36,-19"/>
<text text-anchor="middle" x="235.86" y="-7" font-family="Helvetica,sans-Serif" font-size="10.00">string</text>
</a>
</g>
</g>
<!-- Node1&#45;&gt;Node4 -->
<g id="edge3" class="edge">
<title>Node1&#45;&gt;Node4</title>
<path fill="none" stroke="#63b8ff" d="M385.53,-349.53C278.82,-348.23 73.63,-339.66 19.86,-294 -2.59,-274.93 0.86,-259.96 0.86,-230.5 0.86,-230.5 0.86,-230.5 0.86,-118.5 0.86,-30.34 139.1,-13.88 203.53,-11"/>
<polygon fill="#63b8ff" stroke="#63b8ff" points="203.63,-14.5 213.5,-10.65 203.38,-7.5 203.63,-14.5"/>
</g>
<!-- Node5 -->
<g id="node5" class="node">
<title>Node5</title>
<g id="a_node5"><a xlink:title=" ">
<polygon fill="#e0e0e0" stroke="#999999" points="837.36,-74 802.36,-74 802.36,-55 837.36,-55 837.36,-74"/>
<text text-anchor="middle" x="819.86" y="-62" font-family="Helvetica,sans-Serif" font-size="10.00">map</text>
</a>
</g>
</g>
<!-- Node1&#45;&gt;Node5 -->
<g id="edge4" class="edge">
<title>Node1&#45;&gt;Node5</title>
<path fill="none" stroke="#63b8ff" d="M516.23,-349.1C599.04,-346.71 745.04,-336.17 861.86,-294 905.25,-278.34 927.51,-279.34 949.86,-239 985.14,-175.36 893.01,-108.9 845.77,-80.17"/>
<polygon fill="#63b8ff" stroke="#63b8ff" points="847.86,-77.33 837.47,-75.24 844.29,-83.35 847.86,-77.33"/>
</g>
<!-- Node6 -->
<g id="node6" class="node">
<title>Node6</title>
<g id="a_node6"><a xlink:title=" ">
<polygon fill="#e0e0e0" stroke="#999999" points="267.36,-294 218.36,-294 218.36,-275 267.36,-275 267.36,-294"/>
<text text-anchor="middle" x="242.86" y="-282" font-family="Helvetica,sans-Serif" font-size="10.00">random</text>
</a>
</g>
</g>
<!-- Node1&#45;&gt;Node6 -->
<g id="edge5" class="edge">
<title>Node1&#45;&gt;Node6</title>
<path fill="none" stroke="#63b8ff" d="M385.91,-329.51C350.55,-318.63 308.15,-305.59 278.73,-296.54"/>
<polygon fill="#63b8ff" stroke="#63b8ff" points="279.79,-293.2 269.2,-293.6 277.73,-299.89 279.79,-293.2"/>
</g>
<!-- Node7 -->
<g id="node7" class="node">
<title>Node7</title>
<g id="a_node7"><a xlink:title=" ">
<polygon fill="#e0e0e0" stroke="#999999" points="130.86,-184 86.86,-184 86.86,-165 130.86,-165 130.86,-184"/>
<text text-anchor="middle" x="108.86" y="-172" font-family="Helvetica,sans-Serif" font-size="10.00">cmath</text>
</a>
</g>
</g>
<!-- Node1&#45;&gt;Node7 -->
<g id="edge6" class="edge">
<title>Node1&#45;&gt;Node7</title>
<path fill="none" stroke="#63b8ff" d="M385.42,-347.18C301.04,-342.75 160.95,-330.04 125.86,-294 100.44,-267.89 101.87,-221.97 105.29,-195.62"/>
<polygon fill="#63b8ff" stroke="#63b8ff" points="108.72,-196.33 106.79,-185.92 101.8,-195.26 108.72,-196.33"/>
</g>
<!-- Node8 -->
<g id="node8" class="node">
<title>Node8</title>
<g id="a_node8"><a xlink:title=" ">
<polygon fill="#e0e0e0" stroke="#999999" points="367.86,-294 323.86,-294 323.86,-275 367.86,-275 367.86,-294"/>
<text text-anchor="middle" x="345.86" y="-282" font-family="Helvetica,sans-Serif" font-size="10.00">time.h</text>
</a>
</g>
</g>
<!-- Node1&#45;&gt;Node8 -->
<g id="edge7" class="edge">
<title>Node1&#45;&gt;Node8</title>
<path fill="none" stroke="#63b8ff" d="M418.22,-329.6C402.62,-320.09 384.28,-308.91 369.96,-300.19"/>
<polygon fill="#63b8ff" stroke="#63b8ff" points="372,-297.33 361.64,-295.12 368.36,-303.31 372,-297.33"/>
</g>
<!-- Node9 -->
<g id="node9" class="node">
<title>Node9</title>
<g id="a_node9"><a xlink:href="playable_character_8hpp.html" target="_top" xlink:title="Classe principal com a lógica de playableCharacter.">
<polygon fill="white" stroke="#666666" points="453.36,-239 340.36,-239 340.36,-220 453.36,-220 453.36,-239"/>
<text text-anchor="middle" x="396.86" y="-227" font-family="Helvetica,sans-Serif" font-size="10.00">playableCharacter.hpp</text>
</a>
</g>
</g>
<!-- Node1&#45;&gt;Node9 -->
<g id="edge8" class="edge">
<title>Node1&#45;&gt;Node9</title>
<path fill="none" stroke="#63b8ff" d="M475.95,-329.69C491.97,-314.56 507.68,-293.27 495.86,-275 486.17,-260.01 470.09,-250.02 453.68,-243.38"/>
<polygon fill="#63b8ff" stroke="#63b8ff" points="454.93,-240.11 444.33,-240 452.54,-246.69 454.93,-240.11"/>
</g>
<!-- Node11 -->
<g id="node11" class="node">
<title>Node11</title>
<g id="a_node11"><a xlink:href="weapon_8hpp.html" target="_top" xlink:title="Classe principal responsavel pela lógica de weapon.">
<polygon fill="white" stroke="#666666" points="607.86,-184 539.86,-184 539.86,-165 607.86,-165 607.86,-184"/>
<text text-anchor="middle" x="573.86" y="-172" font-family="Helvetica,sans-Serif" font-size="10.00">weapon.hpp</text>
</a>
</g>
</g>
<!-- Node1&#45;&gt;Node11 -->
<g id="edge37" class="edge">
<title>Node1&#45;&gt;Node11</title>
<path fill="none" stroke="#63b8ff" d="M477.01,-329.76C488.92,-319.9 502.61,-307.26 512.86,-294 537.31,-262.38 556.54,-219.48 566.46,-194.92"/>
<polygon fill="#63b8ff" stroke="#63b8ff" points="569.61,-196.46 570.01,-185.87 563.1,-193.9 569.61,-196.46"/>
</g>
<!-- Node13 -->
<g id="node13" class="node">
<title>Node13</title>
<g id="a_node13"><a xlink:href="utilities_8hpp.html" target="_top" xlink:title="Classe principal com a lógica de utilities.">
<polygon fill="white" stroke="#666666" points="397.86,-74 331.86,-74 331.86,-55 397.86,-55 397.86,-74"/>
<text text-anchor="middle" x="364.86" y="-62" font-family="Helvetica,sans-Serif" font-size="10.00">utilities.hpp</text>
</a>
</g>
</g>
<!-- Node1&#45;&gt;Node13 -->
<g id="edge39" class="edge">
<title>Node1&#45;&gt;Node13</title>
<path fill="none" stroke="#63b8ff" d="M461.47,-329.79C468.62,-313.51 474.79,-290.62 462.86,-275 425.95,-226.67 367.77,-287.33 330.86,-239 295.05,-192.12 332.18,-117.83 352.91,-83.72"/>
<polygon fill="#63b8ff" stroke="#63b8ff" points="355.77,-85.75 358.14,-75.42 349.85,-82.01 355.77,-85.75"/>
</g>
<!-- Node14 -->
<g id="node14" class="node">
<title>Node14</title>
<g id="a_node14"><a xlink:href="item_8hpp.html" target="_top" xlink:title="Classe principal com a lógica dos itens.">
<polygon fill="white" stroke="#666666" points="697.86,-129 643.86,-129 643.86,-110 697.86,-110 697.86,-129"/>
<text text-anchor="middle" x="670.86" y="-117" font-family="Helvetica,sans-Serif" font-size="10.00">item.hpp</text>
</a>
</g>
</g>
<!-- Node1&#45;&gt;Node14 -->
<g id="edge38" class="edge">
<title>Node1&#45;&gt;Node14</title>
<path fill="none" stroke="#63b8ff" d="M515.95,-344.42C635.02,-333.63 880.38,-303.87 930.86,-239 992.26,-160.11 795.88,-131.99 709.52,-123.6"/>
<polygon fill="#63b8ff" stroke="#63b8ff" points="709.89,-120.12 699.61,-122.68 709.24,-127.09 709.89,-120.12"/>
</g>
<!-- Node16 -->
<g id="node16" class="node">
<title>Node16</title>
<g id="a_node16"><a xlink:href="monster_8hpp.html" target="_top" xlink:title="Classe principal com a lógica de monster.">
<polygon fill="white" stroke="#666666" points="207.36,-239 136.36,-239 136.36,-220 207.36,-220 207.36,-239"/>
<text text-anchor="middle" x="171.86" y="-227" font-family="Helvetica,sans-Serif" font-size="10.00">monster.hpp</text>
</a>
</g>
</g>
<!-- Node1&#45;&gt;Node16 -->
<g id="edge28" class="edge">
<title>Node1&#45;&gt;Node16</title>
<path fill="none" stroke="#63b8ff" d="M399.83,-329.6C374.17,-319.36 342.68,-306.44 314.86,-294 297.26,-286.13 293.4,-283.02 275.86,-275 251.94,-264.06 224.59,-252.39 203.94,-243.74"/>
<polygon fill="#63b8ff" stroke="#63b8ff" points="205.48,-240.6 194.91,-239.98 202.79,-247.06 205.48,-240.6"/>
</g>
<!-- Node17 -->
<g id="node17" class="node">
<title>Node17</title>
<g id="a_node17"><a xlink:href="enemy_8hpp.html" target="_top" xlink:title="Classe principal com a lógica de enemy.">
<polygon fill="white" stroke="#666666" points="200.36,-294 135.36,-294 135.36,-275 200.36,-275 200.36,-294"/>
<text text-anchor="middle" x="167.86" y="-282" font-family="Helvetica,sans-Serif" font-size="10.00">enemy.hpp</text>
</a>
</g>
</g>
<!-- Node1&#45;&gt;Node17 -->
<g id="edge32" class="edge">
<title>Node1&#45;&gt;Node17</title>
<path fill="none" stroke="#63b8ff" d="M385.58,-334.74C332.31,-322.69 258.5,-306 211.97,-295.47"/>
<polygon fill="#63b8ff" stroke="#63b8ff" points="212.76,-292.07 202.23,-293.27 211.22,-298.89 212.76,-292.07"/>
</g>
<!-- Node18 -->
<g id="node18" class="node">
<title>Node18</title>
<g id="a_node18"><a xlink:href="vampire_8hpp.html" target="_top" xlink:title=" ">
<polygon fill="white" stroke="#666666" points="453.86,-294 385.86,-294 385.86,-275 453.86,-275 453.86,-294"/>
<text text-anchor="middle" x="419.86" y="-282" font-family="Helvetica,sans-Serif" font-size="10.00">vampire.hpp</text>
</a>
</g>
</g>
<!-- Node1&#45;&gt;Node18 -->
<g id="edge34" class="edge">
<title>Node1&#45;&gt;Node18</title>
<path fill="none" stroke="#63b8ff" d="M441.22,-329.6C437.31,-321.52 432.81,-312.23 428.96,-304.27"/>
<polygon fill="#63b8ff" stroke="#63b8ff" points="432.23,-303 424.72,-295.52 425.93,-306.05 432.23,-303"/>
</g>
<!-- Node19 -->
<g id="node19" class="node">
<title>Node19</title>
<g id="a_node19"><a xlink:href="inventory_8hpp.html" target="_top" xlink:title="Classe principal com a lógica do inventário.">
<polygon fill="white" stroke="#666666" points="659.86,-294 585.86,-294 585.86,-275 659.86,-275 659.86,-294"/>
<text text-anchor="middle" x="622.86" y="-282" font-family="Helvetica,sans-Serif" font-size="10.00">inventory.hpp</text>
</a>
</g>
</g>
<!-- Node1&#45;&gt;Node19 -->
<g id="edge40" class="edge">
<title>Node1&#45;&gt;Node19</title>
<path fill="none" stroke="#63b8ff" d="M504.34,-329.6C531.76,-319.4 564.34,-307.28 588.4,-298.32"/>
<polygon fill="#63b8ff" stroke="#63b8ff" points="589.56,-301.63 597.71,-294.86 587.12,-295.07 589.56,-301.63"/>
</g>
<!-- Node22 -->
<g id="node22" class="node">
<title>Node22</title>
<g id="a_node22"><a xlink:title=" ">
<polygon fill="#e0e0e0" stroke="#999999" points="921.86,-239 827.86,-239 827.86,-220 921.86,-220 921.86,-239"/>
<text text-anchor="middle" x="874.86" y="-227" font-family="Helvetica,sans-Serif" font-size="10.00">tabulate/table.hpp</text>
</a>
</g>
</g>
<!-- Node1&#45;&gt;Node22 -->
<g id="edge52" class="edge">
<title>Node1&#45;&gt;Node22</title>
<path fill="none" stroke="#63b8ff" d="M515.95,-333.83C559.4,-323.14 617.73,-308.38 668.86,-294 727.64,-277.47 795.18,-256.22 836.43,-242.97"/>
<polygon fill="#63b8ff" stroke="#63b8ff" points="837.45,-246.32 845.9,-239.93 835.3,-239.66 837.45,-246.32"/>
</g>
<!-- Node9&#45;&gt;Node2 -->
<g id="edge9" class="edge">
<title>Node9&#45;&gt;Node2</title>
<path fill="none" stroke="#63b8ff" d="M403.27,-219.79C412.38,-207.47 429.63,-184.32 444.86,-165 484.65,-114.54 533.29,-56.29 557.18,-27.88"/>
<polygon fill="#63b8ff" stroke="#63b8ff" points="559.55,-30.51 563.31,-20.61 554.19,-26 559.55,-30.51"/>
</g>
<!-- Node9&#45;&gt;Node4 -->
<g id="edge10" class="edge">
<title>Node9&#45;&gt;Node4</title>
<path fill="none" stroke="#63b8ff" d="M390.35,-219.68C366.23,-187.02 281.65,-72.5 248.93,-28.19"/>
<polygon fill="#63b8ff" stroke="#63b8ff" points="251.93,-26.37 243.18,-20.4 246.3,-30.53 251.93,-26.37"/>
</g>
<!-- Node10 -->
<g id="node10" class="node">
<title>Node10</title>
<g id="a_node10"><a xlink:title=" ">
<polygon fill="#e0e0e0" stroke="#999999" points="483.36,-184 454.36,-184 454.36,-165 483.36,-165 483.36,-184"/>
<text text-anchor="middle" x="468.86" y="-172" font-family="Helvetica,sans-Serif" font-size="10.00">list</text>
</a>
</g>
</g>
<!-- Node9&#45;&gt;Node10 -->
<g id="edge11" class="edge">
<title>Node9&#45;&gt;Node10</title>
<path fill="none" stroke="#63b8ff" d="M409.08,-219.51C419.69,-211.7 435.3,-200.21 447.91,-190.93"/>
<polygon fill="#63b8ff" stroke="#63b8ff" points="449.63,-194 455.61,-185.26 445.48,-188.36 449.63,-194"/>
</g>
<!-- Node9&#45;&gt;Node11 -->
<g id="edge12" class="edge">
<title>Node9&#45;&gt;Node11</title>
<path fill="none" stroke="#63b8ff" d="M426.89,-219.51C456.09,-210.76 500.67,-197.42 533.08,-187.71"/>
<polygon fill="#63b8ff" stroke="#63b8ff" points="533.96,-191.1 542.54,-184.88 531.95,-184.4 533.96,-191.1"/>
</g>
<!-- Node9&#45;&gt;Node13 -->
<g id="edge27" class="edge">
<title>Node9&#45;&gt;Node13</title>
<path fill="none" stroke="#63b8ff" d="M395.14,-219.74C390.17,-194.42 375.7,-120.72 368.72,-85.16"/>
<polygon fill="#63b8ff" stroke="#63b8ff" points="372.24,-84.93 366.88,-75.79 365.38,-86.28 372.24,-84.93"/>
</g>
<!-- Node11&#45;&gt;Node2 -->
<g id="edge15" class="edge">
<title>Node11&#45;&gt;Node2</title>
<path fill="none" stroke="#63b8ff" d="M573.76,-164.74C573.45,-139.53 572.55,-66.36 572.11,-30.62"/>
<polygon fill="#63b8ff" stroke="#63b8ff" points="575.61,-30.78 571.99,-20.82 568.61,-30.86 575.61,-30.78"/>
</g>
<!-- Node11&#45;&gt;Node4 -->
<g id="edge13" class="edge">
<title>Node11&#45;&gt;Node4</title>
<path fill="none" stroke="#63b8ff" d="M565.97,-164.51C554.2,-151.44 530.95,-126.92 507.86,-110 466.63,-79.79 454.39,-73.8 406.86,-55 359.83,-36.4 302.46,-23.3 267.57,-16.33"/>
<polygon fill="#63b8ff" stroke="#63b8ff" points="268.62,-12.97 258.13,-14.49 267.28,-19.84 268.62,-12.97"/>
</g>
<!-- Node11&#45;&gt;Node5 -->
<g id="edge14" class="edge">
<title>Node11&#45;&gt;Node5</title>
<path fill="none" stroke="#63b8ff" d="M606.22,-164.55C633.55,-156.54 673.48,-143.81 706.86,-129 739.01,-114.74 774.01,-94.23 796.41,-80.42"/>
<polygon fill="#63b8ff" stroke="#63b8ff" points="798.12,-83.47 804.75,-75.21 794.42,-77.53 798.12,-83.47"/>
</g>
<!-- Node12 -->
<g id="node12" class="node">
<title>Node12</title>
<g id="a_node12"><a xlink:title=" ">
<polygon fill="#e0e0e0" stroke="#999999" points="647.36,-74 600.36,-74 600.36,-55 647.36,-55 647.36,-74"/>
<text text-anchor="middle" x="623.86" y="-62" font-family="Helvetica,sans-Serif" font-size="10.00">iterator</text>
</a>
</g>
</g>
<!-- Node11&#45;&gt;Node12 -->
<g id="edge16" class="edge">
<title>Node11&#45;&gt;Node12</title>
<path fill="none" stroke="#63b8ff" d="M577.96,-164.66C586.01,-147.26 604.1,-108.19 615.01,-84.62"/>
<polygon fill="#63b8ff" stroke="#63b8ff" points="618.05,-86.38 619.08,-75.83 611.7,-83.44 618.05,-86.38"/>
</g>
<!-- Node11&#45;&gt;Node13 -->
<g id="edge17" class="edge">
<title>Node11&#45;&gt;Node13</title>
<path fill="none" stroke="#63b8ff" d="M562.23,-164.64C544.65,-151.53 509.95,-126.69 477.86,-110 453.7,-97.43 425.15,-86.21 402.8,-78.19"/>
<polygon fill="#63b8ff" stroke="#63b8ff" points="404.07,-74.92 393.47,-74.9 401.74,-81.53 404.07,-74.92"/>
</g>
<!-- Node11&#45;&gt;Node14 -->
<g id="edge20" class="edge">
<title>Node11&#45;&gt;Node14</title>
<path fill="none" stroke="#63b8ff" d="M590.32,-164.51C605.18,-156.39 627.31,-144.3 644.61,-134.85"/>
<polygon fill="#63b8ff" stroke="#63b8ff" points="646.23,-137.95 653.32,-130.08 642.87,-131.81 646.23,-137.95"/>
</g>
<!-- Node13&#45;&gt;Node2 -->
<g id="edge19" class="edge">
<title>Node13&#45;&gt;Node2</title>
<path fill="none" stroke="#63b8ff" d="M398.12,-54.98C435.15,-45.5 494.9,-30.21 533.77,-20.25"/>
<polygon fill="#63b8ff" stroke="#63b8ff" points="534.35,-23.72 543.17,-17.85 532.61,-16.94 534.35,-23.72"/>
</g>
<!-- Node13&#45;&gt;Node4 -->
<g id="edge18" class="edge">
<title>Node13&#45;&gt;Node4</title>
<path fill="none" stroke="#63b8ff" d="M342.98,-54.51C322.13,-45.94 290.52,-32.96 267.04,-23.31"/>
<polygon fill="#63b8ff" stroke="#63b8ff" points="268.55,-20.15 257.97,-19.58 265.89,-26.62 268.55,-20.15"/>
</g>
<!-- Node14&#45;&gt;Node2 -->
<g id="edge22" class="edge">
<title>Node14&#45;&gt;Node2</title>
<path fill="none" stroke="#63b8ff" d="M698.34,-110.46C729.7,-99.89 774.29,-79.72 754.86,-55 737.27,-32.62 658.93,-20.09 610.63,-14.37"/>
<polygon fill="#63b8ff" stroke="#63b8ff" points="611.18,-10.91 600.85,-13.27 610.4,-17.87 611.18,-10.91"/>
</g>
<!-- Node14&#45;&gt;Node4 -->
<g id="edge23" class="edge">
<title>Node14&#45;&gt;Node4</title>
<path fill="none" stroke="#63b8ff" d="M671.84,-109.54C672.81,-95.59 672.35,-68.85 656.86,-55 627.99,-29.19 361.31,-15.72 267.95,-11.76"/>
<polygon fill="#63b8ff" stroke="#63b8ff" points="268.36,-8.27 258.22,-11.36 268.07,-15.27 268.36,-8.27"/>
</g>
<!-- Node14&#45;&gt;Node5 -->
<g id="edge24" class="edge">
<title>Node14&#45;&gt;Node5</title>
<path fill="none" stroke="#63b8ff" d="M696.14,-109.51C722.56,-100.11 763.92,-85.4 791.45,-75.61"/>
<polygon fill="#63b8ff" stroke="#63b8ff" points="792.29,-79.02 800.54,-72.37 789.95,-72.43 792.29,-79.02"/>
</g>
<!-- Node14&#45;&gt;Node12 -->
<g id="edge25" class="edge">
<title>Node14&#45;&gt;Node12</title>
<path fill="none" stroke="#63b8ff" d="M663.1,-109.75C656.68,-102.5 647.35,-91.98 639.4,-83.02"/>
<polygon fill="#63b8ff" stroke="#63b8ff" points="642.05,-80.73 632.8,-75.57 636.81,-85.38 642.05,-80.73"/>
</g>
<!-- Node14&#45;&gt;Node13 -->
<g id="edge26" class="edge">
<title>Node14&#45;&gt;Node13</title>
<path fill="none" stroke="#63b8ff" d="M643.44,-113.75C590.44,-104.57 473.51,-84.32 409.28,-73.19"/>
<polygon fill="#63b8ff" stroke="#63b8ff" points="410.25,-69.81 399.8,-71.55 409.05,-76.71 410.25,-69.81"/>
</g>
<!-- Node15 -->
<g id="node15" class="node">
<title>Node15</title>
<g id="a_node15"><a xlink:title=" ">
<polygon fill="#e0e0e0" stroke="#999999" points="745.86,-74 703.86,-74 703.86,-55 745.86,-55 745.86,-74"/>
<text text-anchor="middle" x="724.86" y="-62" font-family="Helvetica,sans-Serif" font-size="10.00">vector</text>
</a>
</g>
</g>
<!-- Node14&#45;&gt;Node15 -->
<g id="edge21" class="edge">
<title>Node14&#45;&gt;Node15</title>
<path fill="none" stroke="#63b8ff" d="M679.78,-109.75C687.32,-102.35 698.33,-91.54 707.59,-82.45"/>
<polygon fill="#63b8ff" stroke="#63b8ff" points="709.99,-85 714.67,-75.5 705.08,-80.01 709.99,-85"/>
</g>
<!-- Node16&#45;&gt;Node4 -->
<g id="edge29" class="edge">
<title>Node16&#45;&gt;Node4</title>
<path fill="none" stroke="#63b8ff" d="M170.19,-219.58C165.65,-192.87 155.24,-111.91 183.86,-55 189.85,-43.09 200.57,-33.08 210.73,-25.58"/>
<polygon fill="#63b8ff" stroke="#63b8ff" points="212.58,-28.56 218.88,-20.04 208.64,-22.77 212.58,-28.56"/>
</g>
<!-- Node16&#45;&gt;Node7 -->
<g id="edge30" class="edge">
<title>Node16&#45;&gt;Node7</title>
<path fill="none" stroke="#63b8ff" d="M161.18,-219.51C152.16,-211.93 139.03,-200.88 128.18,-191.75"/>
<polygon fill="#63b8ff" stroke="#63b8ff" points="130.46,-189.09 120.55,-185.33 125.95,-194.45 130.46,-189.09"/>
</g>
<!-- Node16&#45;&gt;Node13 -->
<g id="edge31" class="edge">
<title>Node16&#45;&gt;Node13</title>
<path fill="none" stroke="#63b8ff" d="M182.51,-219.5C213.83,-193.06 305.89,-115.31 345.91,-81.5"/>
<polygon fill="#63b8ff" stroke="#63b8ff" points="347.94,-84.37 353.32,-75.25 343.43,-79.02 347.94,-84.37"/>
</g>
<!-- Node17&#45;&gt;Node16 -->
<g id="edge33" class="edge">
<title>Node17&#45;&gt;Node16</title>
<path fill="none" stroke="#63b8ff" d="M168.52,-274.75C169.01,-268.27 169.7,-259.16 170.32,-250.9"/>
<polygon fill="#63b8ff" stroke="#63b8ff" points="173.81,-251.19 171.07,-240.95 166.83,-250.66 173.81,-251.19"/>
</g>
<!-- Node18&#45;&gt;Node2 -->
<g id="edge36" class="edge">
<title>Node18&#45;&gt;Node2</title>
<path fill="none" stroke="#63b8ff" d="M390.9,-274.54C364.02,-265.61 326.85,-251.46 317.86,-239 293.98,-205.91 318.16,-60.13 322.86,-55 350.61,-24.75 470.63,-14.95 533.35,-11.86"/>
<polygon fill="#63b8ff" stroke="#63b8ff" points="533.38,-15.37 543.21,-11.42 533.06,-8.37 533.38,-15.37"/>
</g>
<!-- Node18&#45;&gt;Node16 -->
<g id="edge35" class="edge">
<title>Node18&#45;&gt;Node16</title>
<path fill="none" stroke="#63b8ff" d="M385.38,-276.13C342.01,-266.86 267.35,-250.91 218.8,-240.53"/>
<polygon fill="#63b8ff" stroke="#63b8ff" points="219.65,-237.13 209.14,-238.47 218.19,-243.98 219.65,-237.13"/>
</g>
<!-- Node19&#45;&gt;Node2 -->
<g id="edge41" class="edge">
<title>Node19&#45;&gt;Node2</title>
<path fill="none" stroke="#63b8ff" d="M660.17,-274.83C703.96,-264.36 771.78,-247.17 780.86,-239 845.46,-180.91 903.18,-121.16 846.86,-55 816.93,-19.84 678.65,-12.37 610.31,-10.85"/>
<polygon fill="#63b8ff" stroke="#63b8ff" points="610.76,-7.36 600.7,-10.67 610.63,-14.36 610.76,-7.36"/>
</g>
<!-- Node19&#45;&gt;Node4 -->
<g id="edge42" class="edge">
<title>Node19&#45;&gt;Node4</title>
<path fill="none" stroke="#63b8ff" d="M585.6,-282.28C516.01,-279.3 369.83,-269.5 330.86,-239 263.12,-185.98 243.23,-76.11 237.78,-30.76"/>
<polygon fill="#63b8ff" stroke="#63b8ff" points="241.26,-30.4 236.72,-20.83 234.3,-31.15 241.26,-30.4"/>
</g>
<!-- Node19&#45;&gt;Node5 -->
<g id="edge47" class="edge">
<title>Node19&#45;&gt;Node5</title>
<path fill="none" stroke="#63b8ff" d="M628.7,-274.67C634.59,-265.72 643.94,-251.45 651.86,-239 672.66,-206.33 672.29,-194.08 697.86,-165 706.32,-155.38 767.83,-106.48 800.15,-81"/>
<polygon fill="#63b8ff" stroke="#63b8ff" points="801.9,-84.07 807.59,-75.13 797.57,-78.57 801.9,-84.07"/>
</g>
<!-- Node19&#45;&gt;Node9 -->
<g id="edge50" class="edge">
<title>Node19&#45;&gt;Node9</title>
<path fill="none" stroke="#63b8ff" d="M585.54,-274.75C547.42,-265.81 488.01,-251.88 446.06,-242.04"/>
<polygon fill="#63b8ff" stroke="#63b8ff" points="447,-238.66 436.47,-239.79 445.4,-245.48 447,-238.66"/>
</g>
<!-- Node19&#45;&gt;Node10 -->
<g id="edge43" class="edge">
<title>Node19&#45;&gt;Node10</title>
<path fill="none" stroke="#63b8ff" d="M585.51,-276.15C560.72,-269.73 528.65,-258.33 505.86,-239 491.87,-227.14 481.93,-208.58 475.9,-194.58"/>
<polygon fill="#63b8ff" stroke="#63b8ff" points="479.25,-193.55 472.31,-185.55 472.75,-196.13 479.25,-193.55"/>
</g>
<!-- Node19&#45;&gt;Node11 -->
<g id="edge44" class="edge">
<title>Node19&#45;&gt;Node11</title>
<path fill="none" stroke="#63b8ff" d="M618.85,-274.66C610.96,-257.26 593.23,-218.19 582.54,-194.62"/>
<polygon fill="#63b8ff" stroke="#63b8ff" points="585.87,-193.5 578.55,-185.84 579.5,-196.39 585.87,-193.5"/>
</g>
<!-- Node19&#45;&gt;Node13 -->
<g id="edge45" class="edge">
<title>Node19&#45;&gt;Node13</title>
<path fill="none" stroke="#63b8ff" d="M613.53,-274.64C592.34,-254.61 538.78,-204.51 491.86,-165 455.36,-134.26 411.19,-100.36 385.73,-81.13"/>
<polygon fill="#63b8ff" stroke="#63b8ff" points="387.94,-78.41 377.85,-75.2 383.73,-84.01 387.94,-78.41"/>
</g>
<!-- Node19&#45;&gt;Node14 -->
<g id="edge46" class="edge">
<title>Node19&#45;&gt;Node14</title>
<path fill="none" stroke="#63b8ff" d="M625.44,-274.74C632.9,-249.42 654.6,-175.72 665.08,-140.16"/>
<polygon fill="#63b8ff" stroke="#63b8ff" points="668.37,-141.34 667.84,-130.76 661.66,-139.36 668.37,-141.34"/>
</g>
<!-- Node20 -->
<g id="node20" class="node">
<title>Node20</title>
<g id="a_node20"><a xlink:href="excecao_8hpp.html" target="_top" xlink:title=" ">
<polygon fill="white" stroke="#666666" points="771.86,-239 699.86,-239 699.86,-220 771.86,-220 771.86,-239"/>
<text text-anchor="middle" x="735.86" y="-227" font-family="Helvetica,sans-Serif" font-size="10.00">excecao.hpp</text>
</a>
</g>
</g>
<!-- Node19&#45;&gt;Node20 -->
<g id="edge48" class="edge">
<title>Node19&#45;&gt;Node20</title>
<path fill="none" stroke="#63b8ff" d="M642.03,-274.51C659.75,-266.2 686.34,-253.73 706.7,-244.18"/>
<polygon fill="#63b8ff" stroke="#63b8ff" points="708.04,-247.42 715.61,-240 705.07,-241.08 708.04,-247.42"/>
</g>
<!-- Node19&#45;&gt;Node22 -->
<g id="edge51" class="edge">
<title>Node19&#45;&gt;Node22</title>
<path fill="none" stroke="#63b8ff" d="M660.32,-275.62C702.84,-266.68 772.57,-252.01 820.94,-241.84"/>
<polygon fill="#63b8ff" stroke="#63b8ff" points="821.59,-245.28 830.66,-239.8 820.15,-238.43 821.59,-245.28"/>
</g>
<!-- Node21 -->
<g id="node21" class="node">
<title>Node21</title>
<g id="a_node21"><a xlink:title=" ">
<polygon fill="#e0e0e0" stroke="#999999" points="765.36,-184 706.36,-184 706.36,-165 765.36,-165 765.36,-184"/>
<text text-anchor="middle" x="735.86" y="-172" font-family="Helvetica,sans-Serif" font-size="10.00">exception</text>
</a>
</g>
</g>
<!-- Node20&#45;&gt;Node21 -->
<g id="edge49" class="edge">
<title>Node20&#45;&gt;Node21</title>
<path fill="none" stroke="#63b8ff" d="M735.86,-219.75C735.86,-213.27 735.86,-204.16 735.86,-195.9"/>
<polygon fill="#63b8ff" stroke="#63b8ff" points="739.36,-195.96 735.86,-185.96 732.36,-195.96 739.36,-195.96"/>
</g>
</g>
</svg>
