<?xml version="1.0" encoding="UTF-8" standalone="no"?>
<!DOCTYPE svg PUBLIC "-//W3C//DTD SVG 1.1//EN"
 "http://www.w3.org/Graphics/SVG/1.1/DTD/svg11.dtd">
<!-- Generated by graphviz version 7.0.3 (20221126.0506)
 -->
<!-- Title: Z:/home/lchinu/PDS&#45;II&#45;TP&#45;development/include/item.hpp Pages: 1 -->
<svg width="337pt" height="357pt"
 viewBox="0.00 0.00 337.00 357.00" xmlns="http://www.w3.org/2000/svg" xmlns:xlink="http://www.w3.org/1999/xlink">
<g id="graph0" class="graph" transform="scale(1 1) rotate(0) translate(4 353)">
<title>Z:/home/lchinu/PDS&#45;II&#45;TP&#45;development/include/item.hpp</title>
<!-- Node1 -->
<g id="node1" class="node">
<title>Node1</title>
<g id="a_node1"><a xlink:title="Classe principal com a lógica dos itens.">
<polygon fill="#999999" stroke="#666666" points="329,-349 199,-349 199,-308 329,-308 329,-349"/>
<text text-anchor="start" x="207" y="-337" font-family="Helvetica,sans-Serif" font-size="10.00">Z:/home/lchinu/PDS</text>
<text text-anchor="start" x="207" y="-326" font-family="Helvetica,sans-Serif" font-size="10.00">&#45;II&#45;TP&#45;development/include</text>
<text text-anchor="middle" x="264" y="-315" font-family="Helvetica,sans-Serif" font-size="10.00">/item.hpp</text>
</a>
</g>
</g>
<!-- Node2 -->
<g id="node2" class="node">
<title>Node2</title>
<g id="a_node2"><a xlink:href="game_events_8hpp.html" target="_top" xlink:title="Classe principal com a lógica de gameEvents.">
<polygon fill="white" stroke="#666666" points="130,-41 0,-41 0,0 130,0 130,-41"/>
<text text-anchor="start" x="8" y="-29" font-family="Helvetica,sans-Serif" font-size="10.00">Z:/home/lchinu/PDS</text>
<text text-anchor="start" x="8" y="-18" font-family="Helvetica,sans-Serif" font-size="10.00">&#45;II&#45;TP&#45;development/include</text>
<text text-anchor="middle" x="65" y="-7" font-family="Helvetica,sans-Serif" font-size="10.00">/gameEvents.hpp</text>
</a>
</g>
</g>
<!-- Node1&#45;&gt;Node2 -->
<g id="edge1" class="edge">
<title>Node1&#45;&gt;Node2</title>
<path fill="none" stroke="#63b8ff" d="M187.88,-305.92C135.26,-286.44 69.61,-251.91 40,-195 15.79,-148.47 26.23,-128.11 38,-77 40.86,-64.57 46.9,-51.71 52.54,-41.5"/>
<polygon fill="#63b8ff" stroke="#63b8ff" points="186.54,-309.16 197.13,-309.23 188.89,-302.57 186.54,-309.16"/>
</g>
<!-- Node3 -->
<g id="node3" class="node">
<title>Node3</title>
<g id="a_node3"><a xlink:href="inventory_8hpp.html" target="_top" xlink:title="Classe principal com a lógica do inventário.">
<polygon fill="white" stroke="#666666" points="275,-118 145,-118 145,-77 275,-77 275,-118"/>
<text text-anchor="start" x="153" y="-106" font-family="Helvetica,sans-Serif" font-size="10.00">Z:/home/lchinu/PDS</text>
<text text-anchor="start" x="153" y="-95" font-family="Helvetica,sans-Serif" font-size="10.00">&#45;II&#45;TP&#45;development/include</text>
<text text-anchor="middle" x="210" y="-84" font-family="Helvetica,sans-Serif" font-size="10.00">/inventory.hpp</text>
</a>
</g>
</g>
<!-- Node1&#45;&gt;Node3 -->
<g id="edge2" class="edge">
<title>Node1&#45;&gt;Node3</title>
<path fill="none" stroke="#63b8ff" d="M282.28,-297.58C286.28,-289.56 289.93,-280.69 292,-272 296.22,-254.27 296.98,-248.53 292,-231 279.42,-186.77 247.39,-142.85 227.29,-118.34"/>
<polygon fill="#63b8ff" stroke="#63b8ff" points="279.28,-295.76 277.64,-306.23 285.45,-299.07 279.28,-295.76"/>
</g>
<!-- Node4 -->
<g id="node4" class="node">
<title>Node4</title>
<g id="a_node4"><a xlink:href="shop_8hpp.html" target="_top" xlink:title="Classe principal com a lógica do shop.">
<polygon fill="white" stroke="#666666" points="288,-41 158,-41 158,0 288,0 288,-41"/>
<text text-anchor="start" x="166" y="-29" font-family="Helvetica,sans-Serif" font-size="10.00">Z:/home/lchinu/PDS</text>
<text text-anchor="start" x="166" y="-18" font-family="Helvetica,sans-Serif" font-size="10.00">&#45;II&#45;TP&#45;development/include</text>
<text text-anchor="middle" x="223" y="-7" font-family="Helvetica,sans-Serif" font-size="10.00">/shop.hpp</text>
</a>
</g>
</g>
<!-- Node1&#45;&gt;Node4 -->
<g id="edge5" class="edge">
<title>Node1&#45;&gt;Node4</title>
<path fill="none" stroke="#63b8ff" d="M291.96,-298.73C298.1,-290.7 303.74,-281.53 307,-272 321.4,-229.9 343.99,-158.32 300,-77 291.92,-62.07 277.88,-50.17 263.98,-41.28"/>
<polygon fill="#63b8ff" stroke="#63b8ff" points="289.27,-296.5 285.6,-306.44 294.66,-300.96 289.27,-296.5"/>
</g>
<!-- Node5 -->
<g id="node5" class="node">
<title>Node5</title>
<g id="a_node5"><a xlink:href="weapon_8hpp.html" target="_top" xlink:title="Classe principal responsavel pela lógica de weapon.">
<polygon fill="white" stroke="#666666" points="283,-272 153,-272 153,-231 283,-231 283,-272"/>
<text text-anchor="start" x="161" y="-260" font-family="Helvetica,sans-Serif" font-size="10.00">Z:/home/lchinu/PDS</text>
<text text-anchor="start" x="161" y="-249" font-family="Helvetica,sans-Serif" font-size="10.00">&#45;II&#45;TP&#45;development/include</text>
<text text-anchor="middle" x="218" y="-238" font-family="Helvetica,sans-Serif" font-size="10.00">/weapon.hpp</text>
</a>
</g>
</g>
<!-- Node1&#45;&gt;Node5 -->
<g id="edge6" class="edge">
<title>Node1&#45;&gt;Node5</title>
<path fill="none" stroke="#63b8ff" d="M245.94,-298.06C240.65,-289.43 235,-280.21 230.16,-272.33"/>
<polygon fill="#63b8ff" stroke="#63b8ff" points="242.91,-299.81 251.12,-306.5 248.88,-296.15 242.91,-299.81"/>
</g>
<!-- Node3&#45;&gt;Node2 -->
<g id="edge3" class="edge">
<title>Node3&#45;&gt;Node2</title>
<path fill="none" stroke="#63b8ff" d="M161.37,-71.35C142.58,-61.63 121.38,-50.66 103.66,-41.49"/>
<polygon fill="#63b8ff" stroke="#63b8ff" points="159.69,-74.42 170.18,-75.9 162.9,-68.2 159.69,-74.42"/>
</g>
<!-- Node3&#45;&gt;Node4 -->
<g id="edge4" class="edge">
<title>Node3&#45;&gt;Node4</title>
<path fill="none" stroke="#63b8ff" d="M215.35,-65.65C216.77,-57.43 218.27,-48.78 219.56,-41.33"/>
<polygon fill="#63b8ff" stroke="#63b8ff" points="211.93,-64.85 213.67,-75.3 218.83,-66.05 211.93,-64.85"/>
</g>
<!-- Node5&#45;&gt;Node2 -->
<g id="edge7" class="edge">
<title>Node5&#45;&gt;Node2</title>
<path fill="none" stroke="#63b8ff" d="M141.58,-242.66C111.03,-235.34 78.71,-221.41 60,-195 27.07,-148.53 45.49,-76.11 57.39,-41.38"/>
<polygon fill="#63b8ff" stroke="#63b8ff" points="140.74,-246.06 151.25,-244.75 142.21,-239.22 140.74,-246.06"/>
</g>
<!-- Node5&#45;&gt;Node3 -->
<g id="edge8" class="edge">
<title>Node5&#45;&gt;Node3</title>
<path fill="none" stroke="#63b8ff" d="M216.37,-219.44C214.77,-189.19 212.4,-144.1 211.05,-118.38"/>
<polygon fill="#63b8ff" stroke="#63b8ff" points="212.85,-219.32 216.87,-229.12 219.84,-218.95 212.85,-219.32"/>
</g>
<!-- Node5&#45;&gt;Node4 -->
<g id="edge13" class="edge">
<title>Node5&#45;&gt;Node4</title>
<path fill="none" stroke="#63b8ff" d="M237.73,-220.96C253.76,-195.07 275.12,-155.76 284,-118 288.17,-100.26 291.37,-93.67 284,-77 277.69,-62.73 265.69,-50.55 254,-41.26"/>
<polygon fill="#63b8ff" stroke="#63b8ff" points="234.87,-218.93 232.48,-229.25 240.79,-222.67 234.87,-218.93"/>
</g>
<!-- Node6 -->
<g id="node6" class="node">
<title>Node6</title>
<g id="a_node6"><a xlink:href="playable_character_8hpp.html" target="_top" xlink:title="Classe principal com a lógica de playableCharacter.">
<polygon fill="white" stroke="#666666" points="199,-195 69,-195 69,-154 199,-154 199,-195"/>
<text text-anchor="start" x="77" y="-183" font-family="Helvetica,sans-Serif" font-size="10.00">Z:/home/lchinu/PDS</text>
<text text-anchor="start" x="77" y="-172" font-family="Helvetica,sans-Serif" font-size="10.00">&#45;II&#45;TP&#45;development/include</text>
<text text-anchor="middle" x="134" y="-161" font-family="Helvetica,sans-Serif" font-size="10.00">/playableCharacter.hpp</text>
</a>
</g>
</g>
<!-- Node5&#45;&gt;Node6 -->
<g id="edge9" class="edge">
<title>Node5&#45;&gt;Node6</title>
<path fill="none" stroke="#63b8ff" d="M187.53,-223.29C177.17,-214.05 165.8,-203.89 156.21,-195.33"/>
<polygon fill="#63b8ff" stroke="#63b8ff" points="185.01,-225.74 194.8,-229.79 189.67,-220.52 185.01,-225.74"/>
</g>
<!-- Node6&#45;&gt;Node2 -->
<g id="edge10" class="edge">
<title>Node6&#45;&gt;Node2</title>
<path fill="none" stroke="#63b8ff" d="M116.37,-143.66C111.79,-135.46 107.02,-126.49 103,-118 90.75,-92.13 79.06,-61.17 71.96,-41.42"/>
<polygon fill="#63b8ff" stroke="#63b8ff" points="113.26,-145.27 121.25,-152.23 119.34,-141.81 113.26,-145.27"/>
</g>
<!-- Node6&#45;&gt;Node3 -->
<g id="edge11" class="edge">
<title>Node6&#45;&gt;Node3</title>
<path fill="none" stroke="#63b8ff" d="M162.13,-145.74C171.35,-136.64 181.4,-126.72 189.9,-118.33"/>
<polygon fill="#63b8ff" stroke="#63b8ff" points="159.7,-143.22 155.05,-152.73 164.62,-148.2 159.7,-143.22"/>
</g>
<!-- Node6&#45;&gt;Node4 -->
<g id="edge12" class="edge">
<title>Node6&#45;&gt;Node4</title>
<path fill="none" stroke="#63b8ff" d="M127.48,-142.33C124.97,-122.4 124.94,-96.69 136,-77 144.6,-61.69 159.36,-49.97 174.31,-41.33"/>
<polygon fill="#63b8ff" stroke="#63b8ff" points="124,-142.76 129,-152.1 130.92,-141.68 124,-142.76"/>
</g>
</g>
</svg>
