<?xml version="1.0" encoding="UTF-8" standalone="no"?>
<!DOCTYPE svg PUBLIC "-//W3C//DTD SVG 1.1//EN"
 "http://www.w3.org/Graphics/SVG/1.1/DTD/svg11.dtd">
<!-- Generated by graphviz version 7.0.3 (20221126.0506)
 -->
<!-- Title: Z:/home/lchinu/PDS&#45;II&#45;TP&#45;development/include/item.hpp Pages: 1 -->
<svg width="304pt" height="159pt"
 viewBox="0.00 0.00 303.89 159.00" xmlns="http://www.w3.org/2000/svg" xmlns:xlink="http://www.w3.org/1999/xlink">
<g id="graph0" class="graph" transform="scale(1 1) rotate(0) translate(4 155)">
<title>Z:/home/lchinu/PDS&#45;II&#45;TP&#45;development/include/item.hpp</title>
<!-- Node1 -->
<g id="node1" class="node">
<title>Node1</title>
<g id="a_node1"><a xlink:title="Classe principal com a lógica dos itens.">
<polygon fill="#999999" stroke="#666666" points="230,-151 100,-151 100,-110 230,-110 230,-151"/>
<text text-anchor="start" x="108" y="-139" font-family="Helvetica,sans-Serif" font-size="10.00">Z:/home/lchinu/PDS</text>
<text text-anchor="start" x="108" y="-128" font-family="Helvetica,sans-Serif" font-size="10.00">&#45;II&#45;TP&#45;development/include</text>
<text text-anchor="middle" x="165" y="-117" font-family="Helvetica,sans-Serif" font-size="10.00">/item.hpp</text>
</a>
</g>
</g>
<!-- Node2 -->
<g id="node2" class="node">
<title>Node2</title>
<g id="a_node2"><a xlink:title=" ">
<polygon fill="#e0e0e0" stroke="#999999" points="42,-74 0,-74 0,-55 42,-55 42,-74"/>
<text text-anchor="middle" x="21" y="-62" font-family="Helvetica,sans-Serif" font-size="10.00">vector</text>
</a>
</g>
</g>
<!-- Node1&#45;&gt;Node2 -->
<g id="edge1" class="edge">
<title>Node1&#45;&gt;Node2</title>
<path fill="none" stroke="#63b8ff" d="M120.23,-109.6C97.8,-99.63 71.23,-87.82 51.23,-78.94"/>
<polygon fill="#63b8ff" stroke="#63b8ff" points="52.81,-75.81 42.25,-74.95 49.97,-82.21 52.81,-75.81"/>
</g>
<!-- Node3 -->
<g id="node3" class="node">
<title>Node3</title>
<g id="a_node3"><a xlink:title=" ">
<polygon fill="#e0e0e0" stroke="#999999" points="127,-19 73,-19 73,0 127,0 127,-19"/>
<text text-anchor="middle" x="100" y="-7" font-family="Helvetica,sans-Serif" font-size="10.00">iostream</text>
</a>
</g>
</g>
<!-- Node1&#45;&gt;Node3 -->
<g id="edge2" class="edge">
<title>Node1&#45;&gt;Node3</title>
<path fill="none" stroke="#63b8ff" d="M123.78,-109.54C110.15,-100.69 96.55,-88.86 89,-74 81.95,-60.11 85.82,-42.55 90.82,-29.42"/>
<polygon fill="#63b8ff" stroke="#63b8ff" points="93.87,-31.17 94.65,-20.61 87.45,-28.38 93.87,-31.17"/>
</g>
<!-- Node4 -->
<g id="node4" class="node">
<title>Node4</title>
<g id="a_node4"><a xlink:title=" ">
<polygon fill="#e0e0e0" stroke="#999999" points="258.5,-19 217.5,-19 217.5,0 258.5,0 258.5,-19"/>
<text text-anchor="middle" x="238" y="-7" font-family="Helvetica,sans-Serif" font-size="10.00">string</text>
</a>
</g>
</g>
<!-- Node1&#45;&gt;Node4 -->
<g id="edge3" class="edge">
<title>Node1&#45;&gt;Node4</title>
<path fill="none" stroke="#63b8ff" d="M230.33,-116.65C253.86,-108.53 278.04,-95.34 292,-74 303.74,-56.06 283.8,-37.61 264.92,-25.26"/>
<polygon fill="#63b8ff" stroke="#63b8ff" points="266.96,-22.41 256.61,-20.18 263.31,-28.38 266.96,-22.41"/>
</g>
<!-- Node5 -->
<g id="node5" class="node">
<title>Node5</title>
<g id="a_node5"><a xlink:title=" ">
<polygon fill="#e0e0e0" stroke="#999999" points="217.5,-74 182.5,-74 182.5,-55 217.5,-55 217.5,-74"/>
<text text-anchor="middle" x="200" y="-62" font-family="Helvetica,sans-Serif" font-size="10.00">map</text>
</a>
</g>
</g>
<!-- Node1&#45;&gt;Node5 -->
<g id="edge4" class="edge">
<title>Node1&#45;&gt;Node5</title>
<path fill="none" stroke="#63b8ff" d="M175.88,-109.6C180.35,-101.43 185.5,-92.02 189.88,-84"/>
<polygon fill="#63b8ff" stroke="#63b8ff" points="192.81,-85.94 194.54,-75.49 186.67,-82.58 192.81,-85.94"/>
</g>
<!-- Node6 -->
<g id="node6" class="node">
<title>Node6</title>
<g id="a_node6"><a xlink:title=" ">
<polygon fill="#e0e0e0" stroke="#999999" points="282.5,-74 235.5,-74 235.5,-55 282.5,-55 282.5,-74"/>
<text text-anchor="middle" x="259" y="-62" font-family="Helvetica,sans-Serif" font-size="10.00">iterator</text>
</a>
</g>
</g>
<!-- Node1&#45;&gt;Node6 -->
<g id="edge5" class="edge">
<title>Node1&#45;&gt;Node6</title>
<path fill="none" stroke="#63b8ff" d="M194.23,-109.6C208.01,-100.22 224.17,-89.21 236.91,-80.54"/>
<polygon fill="#63b8ff" stroke="#63b8ff" points="238.73,-83.54 245.03,-75.01 234.79,-77.75 238.73,-83.54"/>
</g>
<!-- Node7 -->
<g id="node7" class="node">
<title>Node7</title>
<g id="a_node7"><a xlink:href="utilities_8hpp.html" target="_top" xlink:title="Classe principal com a lógica de utilities.">
<polygon fill="white" stroke="#666666" points="164,-74 98,-74 98,-55 164,-55 164,-74"/>
<text text-anchor="middle" x="131" y="-62" font-family="Helvetica,sans-Serif" font-size="10.00">utilities.hpp</text>
</a>
</g>
</g>
<!-- Node1&#45;&gt;Node7 -->
<g id="edge6" class="edge">
<title>Node1&#45;&gt;Node7</title>
<path fill="none" stroke="#63b8ff" d="M154.43,-109.6C150.14,-101.52 145.2,-92.23 140.97,-84.27"/>
<polygon fill="#63b8ff" stroke="#63b8ff" points="144.09,-82.69 136.31,-75.5 137.91,-85.97 144.09,-82.69"/>
</g>
<!-- Node7&#45;&gt;Node3 -->
<g id="edge8" class="edge">
<title>Node7&#45;&gt;Node3</title>
<path fill="none" stroke="#63b8ff" d="M125.88,-54.75C121.82,-47.81 116.01,-37.86 110.91,-29.16"/>
<polygon fill="#63b8ff" stroke="#63b8ff" points="114.06,-27.61 105.99,-20.75 108.02,-31.15 114.06,-27.61"/>
</g>
<!-- Node7&#45;&gt;Node4 -->
<g id="edge7" class="edge">
<title>Node7&#45;&gt;Node4</title>
<path fill="none" stroke="#63b8ff" d="M149.15,-54.51C165.78,-46.27 190.64,-33.96 209.85,-24.45"/>
<polygon fill="#63b8ff" stroke="#63b8ff" points="211.35,-27.6 218.76,-20.03 208.25,-21.33 211.35,-27.6"/>
</g>
</g>
</svg>
