<?xml version="1.0" encoding="UTF-8" standalone="no"?>
<!DOCTYPE svg PUBLIC "-//W3C//DTD SVG 1.1//EN"
 "http://www.w3.org/Graphics/SVG/1.1/DTD/svg11.dtd">
<!-- Generated by graphviz version 7.0.3 (20221126.0506)
 -->
<!-- Title: Z:/home/lchinu/PDS&#45;II&#45;TP&#45;development/include/monster.hpp Pages: 1 -->
<svg width="179pt" height="159pt"
 viewBox="0.00 0.00 179.00 159.00" xmlns="http://www.w3.org/2000/svg" xmlns:xlink="http://www.w3.org/1999/xlink">
<g id="graph0" class="graph" transform="scale(1 1) rotate(0) translate(4 155)">
<title>Z:/home/lchinu/PDS&#45;II&#45;TP&#45;development/include/monster.hpp</title>
<!-- Node1 -->
<g id="node1" class="node">
<title>Node1</title>
<g id="a_node1"><a xlink:title="Classe principal com a lógica de monster.">
<polygon fill="#999999" stroke="#666666" points="130,-151 0,-151 0,-110 130,-110 130,-151"/>
<text text-anchor="start" x="8" y="-139" font-family="Helvetica,sans-Serif" font-size="10.00">Z:/home/lchinu/PDS</text>
<text text-anchor="start" x="8" y="-128" font-family="Helvetica,sans-Serif" font-size="10.00">&#45;II&#45;TP&#45;development/include</text>
<text text-anchor="middle" x="65" y="-117" font-family="Helvetica,sans-Serif" font-size="10.00">/monster.hpp</text>
</a>
</g>
</g>
<!-- Node2 -->
<g id="node2" class="node">
<title>Node2</title>
<g id="a_node2"><a xlink:title=" ">
<polygon fill="#e0e0e0" stroke="#999999" points="64.5,-19 23.5,-19 23.5,0 64.5,0 64.5,-19"/>
<text text-anchor="middle" x="44" y="-7" font-family="Helvetica,sans-Serif" font-size="10.00">string</text>
</a>
</g>
</g>
<!-- Node1&#45;&gt;Node2 -->
<g id="edge1" class="edge">
<title>Node1&#45;&gt;Node2</title>
<path fill="none" stroke="#63b8ff" d="M50.71,-109.75C44.24,-99.6 37.31,-86.71 34,-74 30.21,-59.43 33.19,-42.59 36.86,-29.91"/>
<polygon fill="#63b8ff" stroke="#63b8ff" points="40.09,-31.27 39.91,-20.68 33.45,-29.07 40.09,-31.27"/>
</g>
<!-- Node3 -->
<g id="node3" class="node">
<title>Node3</title>
<g id="a_node3"><a xlink:title=" ">
<polygon fill="#e0e0e0" stroke="#999999" points="87,-74 43,-74 43,-55 87,-55 87,-74"/>
<text text-anchor="middle" x="65" y="-62" font-family="Helvetica,sans-Serif" font-size="10.00">cmath</text>
</a>
</g>
</g>
<!-- Node1&#45;&gt;Node3 -->
<g id="edge2" class="edge">
<title>Node1&#45;&gt;Node3</title>
<path fill="none" stroke="#63b8ff" d="M65,-109.6C65,-101.98 65,-93.3 65,-85.66"/>
<polygon fill="#63b8ff" stroke="#63b8ff" points="68.5,-85.68 65,-75.68 61.5,-85.68 68.5,-85.68"/>
</g>
<!-- Node4 -->
<g id="node4" class="node">
<title>Node4</title>
<g id="a_node4"><a xlink:href="utilities_8hpp.html" target="_top" xlink:title="Classe principal com a lógica de utilities.">
<polygon fill="white" stroke="#666666" points="171,-74 105,-74 105,-55 171,-55 171,-74"/>
<text text-anchor="middle" x="138" y="-62" font-family="Helvetica,sans-Serif" font-size="10.00">utilities.hpp</text>
</a>
</g>
</g>
<!-- Node1&#45;&gt;Node4 -->
<g id="edge3" class="edge">
<title>Node1&#45;&gt;Node4</title>
<path fill="none" stroke="#63b8ff" d="M87.7,-109.6C97.97,-100.59 109.96,-90.08 119.66,-81.58"/>
<polygon fill="#63b8ff" stroke="#63b8ff" points="121.77,-84.38 126.98,-75.16 117.15,-79.12 121.77,-84.38"/>
</g>
<!-- Node4&#45;&gt;Node2 -->
<g id="edge4" class="edge">
<title>Node4&#45;&gt;Node2</title>
<path fill="none" stroke="#63b8ff" d="M122.05,-54.51C107.65,-46.39 86.21,-34.3 69.44,-24.85"/>
<polygon fill="#63b8ff" stroke="#63b8ff" points="71.46,-21.96 61.03,-20.1 68.02,-28.06 71.46,-21.96"/>
</g>
<!-- Node5 -->
<g id="node5" class="node">
<title>Node5</title>
<g id="a_node5"><a xlink:title=" ">
<polygon fill="#e0e0e0" stroke="#999999" points="165,-19 111,-19 111,0 165,0 165,-19"/>
<text text-anchor="middle" x="138" y="-7" font-family="Helvetica,sans-Serif" font-size="10.00">iostream</text>
</a>
</g>
</g>
<!-- Node4&#45;&gt;Node5 -->
<g id="edge5" class="edge">
<title>Node4&#45;&gt;Node5</title>
<path fill="none" stroke="#63b8ff" d="M138,-54.75C138,-48.27 138,-39.16 138,-30.9"/>
<polygon fill="#63b8ff" stroke="#63b8ff" points="141.5,-30.96 138,-20.96 134.5,-30.96 141.5,-30.96"/>
</g>
</g>
</svg>
