<?xml version="1.0" encoding="UTF-8" standalone="no"?>
<!DOCTYPE svg PUBLIC "-//W3C//DTD SVG 1.1//EN"
 "http://www.w3.org/Graphics/SVG/1.1/DTD/svg11.dtd">
<!-- Generated by graphviz version 7.0.3 (20221126.0506)
 -->
<!-- Title: Z:/home/lchinu/PDS&#45;II&#45;TP&#45;development/include/monster.hpp Pages: 1 -->
<svg width="324pt" height="203pt"
 viewBox="0.00 0.00 324.00 203.00" xmlns="http://www.w3.org/2000/svg" xmlns:xlink="http://www.w3.org/1999/xlink">
<g id="graph0" class="graph" transform="scale(1 1) rotate(0) translate(4 199)">
<title>Z:/home/lchinu/PDS&#45;II&#45;TP&#45;development/include/monster.hpp</title>
<!-- Node1 -->
<g id="node1" class="node">
<title>Node1</title>
<g id="a_node1"><a xlink:title="Classe principal com a lógica de monster.">
<polygon fill="#999999" stroke="#666666" points="223,-195 93,-195 93,-154 223,-154 223,-195"/>
<text text-anchor="start" x="101" y="-183" font-family="Helvetica,sans-Serif" font-size="10.00">Z:/home/lchinu/PDS</text>
<text text-anchor="start" x="101" y="-172" font-family="Helvetica,sans-Serif" font-size="10.00">&#45;II&#45;TP&#45;development/include</text>
<text text-anchor="middle" x="158" y="-161" font-family="Helvetica,sans-Serif" font-size="10.00">/monster.hpp</text>
</a>
</g>
</g>
<!-- Node2 -->
<g id="node2" class="node">
<title>Node2</title>
<g id="a_node2"><a xlink:href="enemy_8hpp.html" target="_top" xlink:title="Classe principal com a lógica de enemy.">
<polygon fill="white" stroke="#666666" points="130,-118 0,-118 0,-77 130,-77 130,-118"/>
<text text-anchor="start" x="8" y="-106" font-family="Helvetica,sans-Serif" font-size="10.00">Z:/home/lchinu/PDS</text>
<text text-anchor="start" x="8" y="-95" font-family="Helvetica,sans-Serif" font-size="10.00">&#45;II&#45;TP&#45;development/include</text>
<text text-anchor="middle" x="65" y="-84" font-family="Helvetica,sans-Serif" font-size="10.00">/enemy.hpp</text>
</a>
</g>
</g>
<!-- Node1&#45;&gt;Node2 -->
<g id="edge1" class="edge">
<title>Node1&#45;&gt;Node2</title>
<path fill="none" stroke="#63b8ff" d="M124.61,-146.57C113.05,-137.25 100.32,-126.98 89.59,-118.33"/>
<polygon fill="#63b8ff" stroke="#63b8ff" points="122.41,-149.29 132.39,-152.84 126.8,-143.84 122.41,-149.29"/>
</g>
<!-- Node3 -->
<g id="node3" class="node">
<title>Node3</title>
<g id="a_node3"><a xlink:href="game_events_8hpp.html" target="_top" xlink:title="Classe principal com a lógica de gameEvents.">
<polygon fill="white" stroke="#666666" points="223,-41 93,-41 93,0 223,0 223,-41"/>
<text text-anchor="start" x="101" y="-29" font-family="Helvetica,sans-Serif" font-size="10.00">Z:/home/lchinu/PDS</text>
<text text-anchor="start" x="101" y="-18" font-family="Helvetica,sans-Serif" font-size="10.00">&#45;II&#45;TP&#45;development/include</text>
<text text-anchor="middle" x="158" y="-7" font-family="Helvetica,sans-Serif" font-size="10.00">/gameEvents.hpp</text>
</a>
</g>
</g>
<!-- Node1&#45;&gt;Node3 -->
<g id="edge3" class="edge">
<title>Node1&#45;&gt;Node3</title>
<path fill="none" stroke="#63b8ff" d="M158,-142.44C158,-112.19 158,-67.1 158,-41.38"/>
<polygon fill="#63b8ff" stroke="#63b8ff" points="154.5,-142.12 158,-152.12 161.5,-142.12 154.5,-142.12"/>
</g>
<!-- Node4 -->
<g id="node4" class="node">
<title>Node4</title>
<g id="a_node4"><a xlink:href="vampire_8hpp.html" target="_top" xlink:title=" ">
<polygon fill="white" stroke="#666666" points="316,-118 186,-118 186,-77 316,-77 316,-118"/>
<text text-anchor="start" x="194" y="-106" font-family="Helvetica,sans-Serif" font-size="10.00">Z:/home/lchinu/PDS</text>
<text text-anchor="start" x="194" y="-95" font-family="Helvetica,sans-Serif" font-size="10.00">&#45;II&#45;TP&#45;development/include</text>
<text text-anchor="middle" x="251" y="-84" font-family="Helvetica,sans-Serif" font-size="10.00">/vampire.hpp</text>
</a>
</g>
</g>
<!-- Node1&#45;&gt;Node4 -->
<g id="edge4" class="edge">
<title>Node1&#45;&gt;Node4</title>
<path fill="none" stroke="#63b8ff" d="M191.39,-146.57C202.95,-137.25 215.68,-126.98 226.41,-118.33"/>
<polygon fill="#63b8ff" stroke="#63b8ff" points="189.2,-143.84 183.61,-152.84 193.59,-149.29 189.2,-143.84"/>
</g>
<!-- Node2&#45;&gt;Node3 -->
<g id="edge2" class="edge">
<title>Node2&#45;&gt;Node3</title>
<path fill="none" stroke="#63b8ff" d="M98.39,-69.57C109.95,-60.25 122.68,-49.98 133.41,-41.33"/>
<polygon fill="#63b8ff" stroke="#63b8ff" points="96.2,-66.84 90.61,-75.84 100.59,-72.29 96.2,-66.84"/>
</g>
<!-- Node4&#45;&gt;Node3 -->
<g id="edge5" class="edge">
<title>Node4&#45;&gt;Node3</title>
<path fill="none" stroke="#63b8ff" d="M217.61,-69.57C206.05,-60.25 193.32,-49.98 182.59,-41.33"/>
<polygon fill="#63b8ff" stroke="#63b8ff" points="215.41,-72.29 225.39,-75.84 219.8,-66.84 215.41,-72.29"/>
</g>
</g>
</svg>
