<?xml version="1.0" encoding="UTF-8" standalone="no"?>
<!DOCTYPE svg PUBLIC "-//W3C//DTD SVG 1.1//EN"
 "http://www.w3.org/Graphics/SVG/1.1/DTD/svg11.dtd">
<!-- Generated by graphviz version 7.0.3 (20221126.0506)
 -->
<!-- Title: Z:/home/lchinu/PDS&#45;II&#45;TP&#45;development/include/playableCharacter.hpp Pages: 1 -->
<svg width="305pt" height="203pt"
 viewBox="0.00 0.00 305.00 203.00" xmlns="http://www.w3.org/2000/svg" xmlns:xlink="http://www.w3.org/1999/xlink">
<g id="graph0" class="graph" transform="scale(1 1) rotate(0) translate(4 199)">
<title>Z:/home/lchinu/PDS&#45;II&#45;TP&#45;development/include/playableCharacter.hpp</title>
<!-- Node1 -->
<g id="node1" class="node">
<title>Node1</title>
<g id="a_node1"><a xlink:title="Classe principal com a lógica de playableCharacter.">
<polygon fill="#999999" stroke="#666666" points="214,-195 84,-195 84,-154 214,-154 214,-195"/>
<text text-anchor="start" x="92" y="-183" font-family="Helvetica,sans-Serif" font-size="10.00">Z:/home/lchinu/PDS</text>
<text text-anchor="start" x="92" y="-172" font-family="Helvetica,sans-Serif" font-size="10.00">&#45;II&#45;TP&#45;development/include</text>
<text text-anchor="middle" x="149" y="-161" font-family="Helvetica,sans-Serif" font-size="10.00">/playableCharacter.hpp</text>
</a>
</g>
</g>
<!-- Node2 -->
<g id="node2" class="node">
<title>Node2</title>
<g id="a_node2"><a xlink:href="game_events_8hpp.html" target="_top" xlink:title="Classe principal com a lógica de gameEvents.">
<polygon fill="white" stroke="#666666" points="130,-41 0,-41 0,0 130,0 130,-41"/>
<text text-anchor="start" x="8" y="-29" font-family="Helvetica,sans-Serif" font-size="10.00">Z:/home/lchinu/PDS</text>
<text text-anchor="start" x="8" y="-18" font-family="Helvetica,sans-Serif" font-size="10.00">&#45;II&#45;TP&#45;development/include</text>
<text text-anchor="middle" x="65" y="-7" font-family="Helvetica,sans-Serif" font-size="10.00">/gameEvents.hpp</text>
</a>
</g>
</g>
<!-- Node1&#45;&gt;Node2 -->
<g id="edge1" class="edge">
<title>Node1&#45;&gt;Node2</title>
<path fill="none" stroke="#63b8ff" d="M101.6,-147.08C91.22,-139.08 81.43,-129.35 75,-118 61.55,-94.26 61.12,-61.92 62.62,-41.37"/>
<polygon fill="#63b8ff" stroke="#63b8ff" points="99.41,-149.81 109.58,-152.78 103.48,-144.12 99.41,-149.81"/>
</g>
<!-- Node3 -->
<g id="node3" class="node">
<title>Node3</title>
<g id="a_node3"><a xlink:href="inventory_8hpp.html" target="_top" xlink:title="Classe principal com a lógica do inventário.">
<polygon fill="white" stroke="#666666" points="214,-118 84,-118 84,-77 214,-77 214,-118"/>
<text text-anchor="start" x="92" y="-106" font-family="Helvetica,sans-Serif" font-size="10.00">Z:/home/lchinu/PDS</text>
<text text-anchor="start" x="92" y="-95" font-family="Helvetica,sans-Serif" font-size="10.00">&#45;II&#45;TP&#45;development/include</text>
<text text-anchor="middle" x="149" y="-84" font-family="Helvetica,sans-Serif" font-size="10.00">/inventory.hpp</text>
</a>
</g>
</g>
<!-- Node1&#45;&gt;Node3 -->
<g id="edge2" class="edge">
<title>Node1&#45;&gt;Node3</title>
<path fill="none" stroke="#63b8ff" d="M149,-142.36C149,-134.24 149,-125.7 149,-118.33"/>
<polygon fill="#63b8ff" stroke="#63b8ff" points="145.5,-142.28 149,-152.28 152.5,-142.28 145.5,-142.28"/>
</g>
<!-- Node4 -->
<g id="node4" class="node">
<title>Node4</title>
<g id="a_node4"><a xlink:href="shop_8hpp.html" target="_top" xlink:title="Classe principal com a lógica do shop.">
<polygon fill="white" stroke="#666666" points="297,-41 167,-41 167,0 297,0 297,-41"/>
<text text-anchor="start" x="175" y="-29" font-family="Helvetica,sans-Serif" font-size="10.00">Z:/home/lchinu/PDS</text>
<text text-anchor="start" x="175" y="-18" font-family="Helvetica,sans-Serif" font-size="10.00">&#45;II&#45;TP&#45;development/include</text>
<text text-anchor="middle" x="232" y="-7" font-family="Helvetica,sans-Serif" font-size="10.00">/shop.hpp</text>
</a>
</g>
</g>
<!-- Node1&#45;&gt;Node4 -->
<g id="edge5" class="edge">
<title>Node1&#45;&gt;Node4</title>
<path fill="none" stroke="#63b8ff" d="M196.48,-147.13C206.86,-139.13 216.63,-129.38 223,-118 236.31,-94.21 236.38,-61.89 234.63,-41.36"/>
<polygon fill="#63b8ff" stroke="#63b8ff" points="194.6,-144.17 188.5,-152.83 198.67,-149.86 194.6,-144.17"/>
</g>
<!-- Node3&#45;&gt;Node2 -->
<g id="edge3" class="edge">
<title>Node3&#45;&gt;Node2</title>
<path fill="none" stroke="#63b8ff" d="M118.53,-69.29C108.17,-60.05 96.8,-49.89 87.21,-41.33"/>
<polygon fill="#63b8ff" stroke="#63b8ff" points="116.01,-71.74 125.8,-75.79 120.67,-66.52 116.01,-71.74"/>
</g>
<!-- Node3&#45;&gt;Node4 -->
<g id="edge4" class="edge">
<title>Node3&#45;&gt;Node4</title>
<path fill="none" stroke="#63b8ff" d="M179.11,-69.29C189.34,-60.05 200.58,-49.89 210.05,-41.33"/>
<polygon fill="#63b8ff" stroke="#63b8ff" points="177,-66.48 171.93,-75.78 181.7,-71.67 177,-66.48"/>
</g>
</g>
</svg>
