<?xml version="1.0" encoding="UTF-8" standalone="no"?>
<!DOCTYPE svg PUBLIC "-//W3C//DTD SVG 1.1//EN"
 "http://www.w3.org/Graphics/SVG/1.1/DTD/svg11.dtd">
<!-- Generated by graphviz version 7.0.3 (20221126.0506)
 -->
<!-- Title: Z:/home/lchinu/PDS&#45;II&#45;TP&#45;development/include/utilities.hpp Pages: 1 -->
<svg width="781pt" height="434pt"
 viewBox="0.00 0.00 781.04 434.00" xmlns="http://www.w3.org/2000/svg" xmlns:xlink="http://www.w3.org/1999/xlink">
<g id="graph0" class="graph" transform="scale(1 1) rotate(0) translate(4 430)">
<title>Z:/home/lchinu/PDS&#45;II&#45;TP&#45;development/include/utilities.hpp</title>
<!-- Node1 -->
<g id="node1" class="node">
<title>Node1</title>
<g id="a_node1"><a xlink:title="Classe principal com a lógica de utilities.">
<polygon fill="#999999" stroke="#666666" points="340,-426 210,-426 210,-385 340,-385 340,-426"/>
<text text-anchor="start" x="218" y="-414" font-family="Helvetica,sans-Serif" font-size="10.00">Z:/home/lchinu/PDS</text>
<text text-anchor="start" x="218" y="-403" font-family="Helvetica,sans-Serif" font-size="10.00">&#45;II&#45;TP&#45;development/include</text>
<text text-anchor="middle" x="275" y="-392" font-family="Helvetica,sans-Serif" font-size="10.00">/utilities.hpp</text>
</a>
</g>
</g>
<!-- Node2 -->
<g id="node2" class="node">
<title>Node2</title>
<g id="a_node2"><a xlink:href="game_events_8hpp.html" target="_top" xlink:title="Classe principal com a lógica de gameEvents.">
<polygon fill="white" stroke="#666666" points="509,-41 379,-41 379,0 509,0 509,-41"/>
<text text-anchor="start" x="387" y="-29" font-family="Helvetica,sans-Serif" font-size="10.00">Z:/home/lchinu/PDS</text>
<text text-anchor="start" x="387" y="-18" font-family="Helvetica,sans-Serif" font-size="10.00">&#45;II&#45;TP&#45;development/include</text>
<text text-anchor="middle" x="444" y="-7" font-family="Helvetica,sans-Serif" font-size="10.00">/gameEvents.hpp</text>
</a>
</g>
</g>
<!-- Node1&#45;&gt;Node2 -->
<g id="edge1" class="edge">
<title>Node1&#45;&gt;Node2</title>
<path fill="none" stroke="#63b8ff" d="M351.86,-396.99C490.92,-381.25 770,-338.9 770,-252.5 770,-252.5 770,-252.5 770,-173.5 770,-129.79 782.15,-107.67 751,-77 717.61,-44.13 589.15,-30.34 509.36,-24.85"/>
<polygon fill="#63b8ff" stroke="#63b8ff" points="351.53,-393.5 341.98,-398.08 352.31,-400.46 351.53,-393.5"/>
</g>
<!-- Node3 -->
<g id="node3" class="node">
<title>Node3</title>
<g id="a_node3"><a xlink:href="inventory_8hpp.html" target="_top" xlink:title="Classe principal com a lógica do inventário.">
<polygon fill="white" stroke="#666666" points="327,-118 197,-118 197,-77 327,-77 327,-118"/>
<text text-anchor="start" x="205" y="-106" font-family="Helvetica,sans-Serif" font-size="10.00">Z:/home/lchinu/PDS</text>
<text text-anchor="start" x="205" y="-95" font-family="Helvetica,sans-Serif" font-size="10.00">&#45;II&#45;TP&#45;development/include</text>
<text text-anchor="middle" x="262" y="-84" font-family="Helvetica,sans-Serif" font-size="10.00">/inventory.hpp</text>
</a>
</g>
</g>
<!-- Node1&#45;&gt;Node3 -->
<g id="edge2" class="edge">
<title>Node1&#45;&gt;Node3</title>
<path fill="none" stroke="#63b8ff" d="M293.28,-374.58C297.28,-366.56 300.93,-357.69 303,-349 323.2,-264.12 287.63,-160.69 270.47,-118.18"/>
<polygon fill="#63b8ff" stroke="#63b8ff" points="290.28,-372.76 288.64,-383.23 296.45,-376.07 290.28,-372.76"/>
</g>
<!-- Node5 -->
<g id="node5" class="node">
<title>Node5</title>
<g id="a_node5"><a xlink:href="item_8hpp.html" target="_top" xlink:title="Classe principal com a lógica dos itens.">
<polygon fill="white" stroke="#666666" points="294,-349 164,-349 164,-308 294,-308 294,-349"/>
<text text-anchor="start" x="172" y="-337" font-family="Helvetica,sans-Serif" font-size="10.00">Z:/home/lchinu/PDS</text>
<text text-anchor="start" x="172" y="-326" font-family="Helvetica,sans-Serif" font-size="10.00">&#45;II&#45;TP&#45;development/include</text>
<text text-anchor="middle" x="229" y="-315" font-family="Helvetica,sans-Serif" font-size="10.00">/item.hpp</text>
</a>
</g>
</g>
<!-- Node1&#45;&gt;Node5 -->
<g id="edge5" class="edge">
<title>Node1&#45;&gt;Node5</title>
<path fill="none" stroke="#63b8ff" d="M256.94,-375.06C251.65,-366.43 246,-357.21 241.16,-349.33"/>
<polygon fill="#63b8ff" stroke="#63b8ff" points="253.91,-376.81 262.12,-383.5 259.88,-373.15 253.91,-376.81"/>
</g>
<!-- Node6 -->
<g id="node6" class="node">
<title>Node6</title>
<g id="a_node6"><a xlink:href="weapon_8hpp.html" target="_top" xlink:title="Classe principal responsavel pela lógica de weapon.">
<polygon fill="white" stroke="#666666" points="237,-272 107,-272 107,-231 237,-231 237,-272"/>
<text text-anchor="start" x="115" y="-260" font-family="Helvetica,sans-Serif" font-size="10.00">Z:/home/lchinu/PDS</text>
<text text-anchor="start" x="115" y="-249" font-family="Helvetica,sans-Serif" font-size="10.00">&#45;II&#45;TP&#45;development/include</text>
<text text-anchor="middle" x="172" y="-238" font-family="Helvetica,sans-Serif" font-size="10.00">/weapon.hpp</text>
</a>
</g>
</g>
<!-- Node1&#45;&gt;Node6 -->
<g id="edge24" class="edge">
<title>Node1&#45;&gt;Node6</title>
<path fill="none" stroke="#63b8ff" d="M199.35,-385.01C181.88,-376.81 165.39,-365.25 155,-349 140.06,-325.64 151.04,-292.9 160.99,-272.2"/>
<polygon fill="#63b8ff" stroke="#63b8ff" points="197.75,-388.13 208.32,-388.86 200.52,-381.7 197.75,-388.13"/>
</g>
<!-- Node7 -->
<g id="node7" class="node">
<title>Node7</title>
<g id="a_node7"><a xlink:href="playable_character_8hpp.html" target="_top" xlink:title="Classe principal com a lógica de playableCharacter.">
<polygon fill="white" stroke="#666666" points="218,-195 88,-195 88,-154 218,-154 218,-195"/>
<text text-anchor="start" x="96" y="-183" font-family="Helvetica,sans-Serif" font-size="10.00">Z:/home/lchinu/PDS</text>
<text text-anchor="start" x="96" y="-172" font-family="Helvetica,sans-Serif" font-size="10.00">&#45;II&#45;TP&#45;development/include</text>
<text text-anchor="middle" x="153" y="-161" font-family="Helvetica,sans-Serif" font-size="10.00">/playableCharacter.hpp</text>
</a>
</g>
</g>
<!-- Node1&#45;&gt;Node7 -->
<g id="edge23" class="edge">
<title>Node1&#45;&gt;Node7</title>
<path fill="none" stroke="#63b8ff" d="M199.35,-381.93C179.88,-373.69 159.95,-362.89 144,-349 113.94,-322.82 108.6,-310.43 98,-272 93.15,-254.43 91.06,-247.85 98,-231 103.73,-217.08 114.83,-204.79 125.57,-195.34"/>
<polygon fill="#63b8ff" stroke="#63b8ff" points="197.78,-385.07 208.37,-385.55 200.4,-378.58 197.78,-385.07"/>
</g>
<!-- Node8 -->
<g id="node8" class="node">
<title>Node8</title>
<g id="a_node8"><a xlink:href="monster_8hpp.html" target="_top" xlink:title="Classe principal com a lógica de monster.">
<polygon fill="white" stroke="#666666" points="603,-195 473,-195 473,-154 603,-154 603,-195"/>
<text text-anchor="start" x="481" y="-183" font-family="Helvetica,sans-Serif" font-size="10.00">Z:/home/lchinu/PDS</text>
<text text-anchor="start" x="481" y="-172" font-family="Helvetica,sans-Serif" font-size="10.00">&#45;II&#45;TP&#45;development/include</text>
<text text-anchor="middle" x="538" y="-161" font-family="Helvetica,sans-Serif" font-size="10.00">/monster.hpp</text>
</a>
</g>
</g>
<!-- Node1&#45;&gt;Node8 -->
<g id="edge17" class="edge">
<title>Node1&#45;&gt;Node8</title>
<path fill="none" stroke="#63b8ff" d="M306.32,-377.23C360,-330.49 468.33,-236.16 515.36,-195.21"/>
<polygon fill="#63b8ff" stroke="#63b8ff" points="304.26,-374.38 299.02,-383.58 308.86,-379.66 304.26,-374.38"/>
</g>
<!-- Node3&#45;&gt;Node2 -->
<g id="edge3" class="edge">
<title>Node3&#45;&gt;Node2</title>
<path fill="none" stroke="#63b8ff" d="M320.76,-72.29C344.9,-62.34 372.52,-50.96 395.48,-41.49"/>
<polygon fill="#63b8ff" stroke="#63b8ff" points="319.61,-68.98 311.69,-76.02 322.27,-75.45 319.61,-68.98"/>
</g>
<!-- Node4 -->
<g id="node4" class="node">
<title>Node4</title>
<g id="a_node4"><a xlink:href="shop_8hpp.html" target="_top" xlink:title="Classe principal com a lógica do shop.">
<polygon fill="white" stroke="#666666" points="130,-41 0,-41 0,0 130,0 130,-41"/>
<text text-anchor="start" x="8" y="-29" font-family="Helvetica,sans-Serif" font-size="10.00">Z:/home/lchinu/PDS</text>
<text text-anchor="start" x="8" y="-18" font-family="Helvetica,sans-Serif" font-size="10.00">&#45;II&#45;TP&#45;development/include</text>
<text text-anchor="middle" x="65" y="-7" font-family="Helvetica,sans-Serif" font-size="10.00">/shop.hpp</text>
</a>
</g>
</g>
<!-- Node3&#45;&gt;Node4 -->
<g id="edge4" class="edge">
<title>Node3&#45;&gt;Node4</title>
<path fill="none" stroke="#63b8ff" d="M199.1,-72.55C172.81,-62.54 142.6,-51.04 117.52,-41.49"/>
<polygon fill="#63b8ff" stroke="#63b8ff" points="197.72,-75.77 208.31,-76.06 200.21,-69.23 197.72,-75.77"/>
</g>
<!-- Node5&#45;&gt;Node2 -->
<g id="edge6" class="edge">
<title>Node5&#45;&gt;Node2</title>
<path fill="none" stroke="#63b8ff" d="M249.21,-298.74C292.47,-237.17 393.1,-93.95 430.06,-41.34"/>
<polygon fill="#63b8ff" stroke="#63b8ff" points="246.53,-296.46 243.65,-306.65 252.26,-300.48 246.53,-296.46"/>
</g>
<!-- Node5&#45;&gt;Node3 -->
<g id="edge7" class="edge">
<title>Node5&#45;&gt;Node3</title>
<path fill="none" stroke="#63b8ff" d="M239.59,-296.94C242.03,-288.91 244.38,-280.2 246,-272 256.82,-217.09 260.36,-150.94 261.49,-118.46"/>
<polygon fill="#63b8ff" stroke="#63b8ff" points="236.32,-295.68 236.6,-306.27 242.98,-297.81 236.32,-295.68"/>
</g>
<!-- Node5&#45;&gt;Node4 -->
<g id="edge8" class="edge">
<title>Node5&#45;&gt;Node4</title>
<path fill="none" stroke="#63b8ff" d="M153.27,-305.9C133.61,-297.64 113.61,-286.58 98,-272 33,-211.28 43.55,-165.44 53,-77 54.28,-65.04 57.06,-51.88 59.63,-41.37"/>
<polygon fill="#63b8ff" stroke="#63b8ff" points="151.81,-309.08 162.4,-309.52 154.4,-302.58 151.81,-309.08"/>
</g>
<!-- Node5&#45;&gt;Node6 -->
<g id="edge9" class="edge">
<title>Node5&#45;&gt;Node6</title>
<path fill="none" stroke="#63b8ff" d="M207.26,-298.9C200.53,-290.04 193.25,-280.47 187.07,-272.33"/>
<polygon fill="#63b8ff" stroke="#63b8ff" points="204.27,-300.75 213.11,-306.59 209.84,-296.51 204.27,-300.75"/>
</g>
<!-- Node6&#45;&gt;Node2 -->
<g id="edge10" class="edge">
<title>Node6&#45;&gt;Node2</title>
<path fill="none" stroke="#63b8ff" d="M210.86,-224.13C223.56,-215.17 237.58,-204.92 250,-195 284.51,-167.43 379.45,-80.79 422.4,-41.37"/>
<polygon fill="#63b8ff" stroke="#63b8ff" points="208.89,-221.23 202.7,-229.82 212.9,-226.97 208.89,-221.23"/>
</g>
<!-- Node6&#45;&gt;Node3 -->
<g id="edge11" class="edge">
<title>Node6&#45;&gt;Node3</title>
<path fill="none" stroke="#63b8ff" d="M204.22,-222.69C212.46,-214.41 220.74,-204.89 227,-195 242.35,-170.76 252.23,-138.84 257.46,-118.49"/>
<polygon fill="#63b8ff" stroke="#63b8ff" points="201.95,-220.03 197.17,-229.48 206.8,-225.07 201.95,-220.03"/>
</g>
<!-- Node6&#45;&gt;Node4 -->
<g id="edge16" class="edge">
<title>Node6&#45;&gt;Node4</title>
<path fill="none" stroke="#63b8ff" d="M109.8,-224.69C97.74,-216.89 86.52,-207.09 79,-195 48.9,-146.64 55.54,-75.43 61.13,-41.24"/>
<polygon fill="#63b8ff" stroke="#63b8ff" points="107.92,-227.64 118.3,-229.75 111.5,-221.62 107.92,-227.64"/>
</g>
<!-- Node6&#45;&gt;Node7 -->
<g id="edge12" class="edge">
<title>Node6&#45;&gt;Node7</title>
<path fill="none" stroke="#63b8ff" d="M164.18,-219.65C162.1,-211.43 159.91,-202.78 158.02,-195.33"/>
<polygon fill="#63b8ff" stroke="#63b8ff" points="160.79,-220.49 166.64,-229.33 167.57,-218.77 160.79,-220.49"/>
</g>
<!-- Node7&#45;&gt;Node2 -->
<g id="edge13" class="edge">
<title>Node7&#45;&gt;Node2</title>
<path fill="none" stroke="#63b8ff" d="M156.4,-142.54C160.39,-121.09 169.09,-93.52 188,-77 215.95,-52.57 312.36,-36.73 378.55,-28.46"/>
<polygon fill="#63b8ff" stroke="#63b8ff" points="152.97,-141.8 154.86,-152.23 159.88,-142.9 152.97,-141.8"/>
</g>
<!-- Node7&#45;&gt;Node3 -->
<g id="edge14" class="edge">
<title>Node7&#45;&gt;Node3</title>
<path fill="none" stroke="#63b8ff" d="M191.13,-147.26C204.86,-137.82 220.11,-127.32 232.94,-118.49"/>
<polygon fill="#63b8ff" stroke="#63b8ff" points="189.42,-144.19 183.17,-152.74 193.39,-149.96 189.42,-144.19"/>
</g>
<!-- Node7&#45;&gt;Node4 -->
<g id="edge15" class="edge">
<title>Node7&#45;&gt;Node4</title>
<path fill="none" stroke="#63b8ff" d="M135.94,-144.04C118.43,-113.79 91.66,-67.55 76.51,-41.38"/>
<polygon fill="#63b8ff" stroke="#63b8ff" points="132.7,-145.42 140.74,-152.32 138.76,-141.91 132.7,-145.42"/>
</g>
<!-- Node8&#45;&gt;Node2 -->
<g id="edge20" class="edge">
<title>Node8&#45;&gt;Node2</title>
<path fill="none" stroke="#63b8ff" d="M558.19,-143.75C569.11,-123.65 577.96,-97.2 565,-77 552.4,-57.35 530.9,-44.57 509.5,-36.29"/>
<polygon fill="#63b8ff" stroke="#63b8ff" points="555.21,-141.92 553.17,-152.31 561.25,-145.46 555.21,-141.92"/>
</g>
<!-- Node9 -->
<g id="node9" class="node">
<title>Node9</title>
<g id="a_node9"><a xlink:href="enemy_8hpp.html" target="_top" xlink:title="Classe principal com a lógica de enemy.">
<polygon fill="white" stroke="#666666" points="742,-118 612,-118 612,-77 742,-77 742,-118"/>
<text text-anchor="start" x="620" y="-106" font-family="Helvetica,sans-Serif" font-size="10.00">Z:/home/lchinu/PDS</text>
<text text-anchor="start" x="620" y="-95" font-family="Helvetica,sans-Serif" font-size="10.00">&#45;II&#45;TP&#45;development/include</text>
<text text-anchor="middle" x="677" y="-84" font-family="Helvetica,sans-Serif" font-size="10.00">/enemy.hpp</text>
</a>
</g>
</g>
<!-- Node8&#45;&gt;Node9 -->
<g id="edge18" class="edge">
<title>Node8&#45;&gt;Node9</title>
<path fill="none" stroke="#63b8ff" d="M584.87,-148.21C602.82,-138.52 623.03,-127.62 639.94,-118.49"/>
<polygon fill="#63b8ff" stroke="#63b8ff" points="583.36,-145.05 576.22,-152.88 586.68,-151.21 583.36,-145.05"/>
</g>
<!-- Node10 -->
<g id="node10" class="node">
<title>Node10</title>
<g id="a_node10"><a xlink:href="vampire_8hpp.html" target="_top" xlink:title=" ">
<polygon fill="white" stroke="#666666" points="556,-118 426,-118 426,-77 556,-77 556,-118"/>
<text text-anchor="start" x="434" y="-106" font-family="Helvetica,sans-Serif" font-size="10.00">Z:/home/lchinu/PDS</text>
<text text-anchor="start" x="434" y="-95" font-family="Helvetica,sans-Serif" font-size="10.00">&#45;II&#45;TP&#45;development/include</text>
<text text-anchor="middle" x="491" y="-84" font-family="Helvetica,sans-Serif" font-size="10.00">/vampire.hpp</text>
</a>
</g>
</g>
<!-- Node8&#45;&gt;Node10 -->
<g id="edge21" class="edge">
<title>Node8&#45;&gt;Node10</title>
<path fill="none" stroke="#63b8ff" d="M519.55,-144.06C514.14,-135.43 508.36,-126.21 503.43,-118.33"/>
<polygon fill="#63b8ff" stroke="#63b8ff" points="516.57,-145.9 524.85,-152.51 522.5,-142.18 516.57,-145.9"/>
</g>
<!-- Node9&#45;&gt;Node2 -->
<g id="edge19" class="edge">
<title>Node9&#45;&gt;Node2</title>
<path fill="none" stroke="#63b8ff" d="M604.26,-73.09C572.78,-62.95 536.31,-51.21 506.12,-41.49"/>
<polygon fill="#63b8ff" stroke="#63b8ff" points="603.14,-76.4 613.73,-76.13 605.28,-69.74 603.14,-76.4"/>
</g>
<!-- Node10&#45;&gt;Node2 -->
<g id="edge22" class="edge">
<title>Node10&#45;&gt;Node2</title>
<path fill="none" stroke="#63b8ff" d="M472.55,-67.06C467.14,-58.43 461.36,-49.21 456.43,-41.33"/>
<polygon fill="#63b8ff" stroke="#63b8ff" points="469.57,-68.9 477.85,-75.51 475.5,-65.18 469.57,-68.9"/>
</g>
</g>
</svg>
