<?xml version="1.0" encoding="UTF-8" standalone="no"?>
<!DOCTYPE svg PUBLIC "-//W3C//DTD SVG 1.1//EN"
 "http://www.w3.org/Graphics/SVG/1.1/DTD/svg11.dtd">
<!-- Generated by graphviz version 7.0.3 (20221126.0506)
 -->
<!-- Title: Z:/home/lchinu/PDS&#45;II&#45;TP&#45;development/include/vampire.hpp Pages: 1 -->
<svg width="174pt" height="214pt"
 viewBox="0.00 0.00 174.00 214.00" xmlns="http://www.w3.org/2000/svg" xmlns:xlink="http://www.w3.org/1999/xlink">
<g id="graph0" class="graph" transform="scale(1 1) rotate(0) translate(4 210)">
<title>Z:/home/lchinu/PDS&#45;II&#45;TP&#45;development/include/vampire.hpp</title>
<!-- Node1 -->
<g id="node1" class="node">
<title>Node1</title>
<g id="a_node1"><a xlink:title=" ">
<polygon fill="#999999" stroke="#666666" points="166,-206 36,-206 36,-165 166,-165 166,-206"/>
<text text-anchor="start" x="44" y="-194" font-family="Helvetica,sans-Serif" font-size="10.00">Z:/home/lchinu/PDS</text>
<text text-anchor="start" x="44" y="-183" font-family="Helvetica,sans-Serif" font-size="10.00">&#45;II&#45;TP&#45;development/include</text>
<text text-anchor="middle" x="101" y="-172" font-family="Helvetica,sans-Serif" font-size="10.00">/vampire.hpp</text>
</a>
</g>
</g>
<!-- Node2 -->
<g id="node2" class="node">
<title>Node2</title>
<g id="a_node2"><a xlink:href="monster_8hpp.html" target="_top" xlink:title="Classe principal com a lógica de monster.">
<polygon fill="white" stroke="#666666" points="104.5,-129 33.5,-129 33.5,-110 104.5,-110 104.5,-129"/>
<text text-anchor="middle" x="69" y="-117" font-family="Helvetica,sans-Serif" font-size="10.00">monster.hpp</text>
</a>
</g>
</g>
<!-- Node1&#45;&gt;Node2 -->
<g id="edge1" class="edge">
<title>Node1&#45;&gt;Node2</title>
<path fill="none" stroke="#63b8ff" d="M91.05,-164.6C87.01,-156.52 82.36,-147.23 78.38,-139.27"/>
<polygon fill="#63b8ff" stroke="#63b8ff" points="81.61,-137.9 74.01,-130.52 75.35,-141.03 81.61,-137.9"/>
</g>
<!-- Node6 -->
<g id="node6" class="node">
<title>Node6</title>
<g id="a_node6"><a xlink:title=" ">
<polygon fill="#e0e0e0" stroke="#999999" points="164,-19 110,-19 110,0 164,0 164,-19"/>
<text text-anchor="middle" x="137" y="-7" font-family="Helvetica,sans-Serif" font-size="10.00">iostream</text>
</a>
</g>
</g>
<!-- Node1&#45;&gt;Node6 -->
<g id="edge7" class="edge">
<title>Node1&#45;&gt;Node6</title>
<path fill="none" stroke="#63b8ff" d="M112.65,-164.56C124.5,-143.05 142.06,-107.38 149,-74 152.08,-59.18 148.58,-42.35 144.58,-29.74"/>
<polygon fill="#63b8ff" stroke="#63b8ff" points="147.97,-28.81 141.3,-20.57 141.38,-31.17 147.97,-28.81"/>
</g>
<!-- Node3 -->
<g id="node3" class="node">
<title>Node3</title>
<g id="a_node3"><a xlink:title=" ">
<polygon fill="#e0e0e0" stroke="#999999" points="63.5,-19 22.5,-19 22.5,0 63.5,0 63.5,-19"/>
<text text-anchor="middle" x="43" y="-7" font-family="Helvetica,sans-Serif" font-size="10.00">string</text>
</a>
</g>
</g>
<!-- Node2&#45;&gt;Node3 -->
<g id="edge2" class="edge">
<title>Node2&#45;&gt;Node3</title>
<path fill="none" stroke="#63b8ff" d="M45.57,-109.58C30.43,-102.45 11.95,-90.84 3,-74 -5.83,-57.39 8.02,-39.32 21.78,-26.72"/>
<polygon fill="#63b8ff" stroke="#63b8ff" points="24.03,-29.4 29.41,-20.27 19.51,-24.05 24.03,-29.4"/>
</g>
<!-- Node4 -->
<g id="node4" class="node">
<title>Node4</title>
<g id="a_node4"><a xlink:title=" ">
<polygon fill="#e0e0e0" stroke="#999999" points="56,-74 12,-74 12,-55 56,-55 56,-74"/>
<text text-anchor="middle" x="34" y="-62" font-family="Helvetica,sans-Serif" font-size="10.00">cmath</text>
</a>
</g>
</g>
<!-- Node2&#45;&gt;Node4 -->
<g id="edge3" class="edge">
<title>Node2&#45;&gt;Node4</title>
<path fill="none" stroke="#63b8ff" d="M63.22,-109.75C58.59,-102.73 51.92,-92.64 46.13,-83.87"/>
<polygon fill="#63b8ff" stroke="#63b8ff" points="49.17,-82.12 40.74,-75.71 43.33,-85.98 49.17,-82.12"/>
</g>
<!-- Node5 -->
<g id="node5" class="node">
<title>Node5</title>
<g id="a_node5"><a xlink:href="utilities_8hpp.html" target="_top" xlink:title="Classe principal com a lógica de utilities.">
<polygon fill="white" stroke="#666666" points="140,-74 74,-74 74,-55 140,-55 140,-74"/>
<text text-anchor="middle" x="107" y="-62" font-family="Helvetica,sans-Serif" font-size="10.00">utilities.hpp</text>
</a>
</g>
</g>
<!-- Node2&#45;&gt;Node5 -->
<g id="edge4" class="edge">
<title>Node2&#45;&gt;Node5</title>
<path fill="none" stroke="#63b8ff" d="M75.27,-109.75C80.36,-102.66 87.69,-92.42 94.03,-83.59"/>
<polygon fill="#63b8ff" stroke="#63b8ff" points="96.72,-85.84 99.71,-75.67 91.03,-81.76 96.72,-85.84"/>
</g>
<!-- Node5&#45;&gt;Node3 -->
<g id="edge5" class="edge">
<title>Node5&#45;&gt;Node3</title>
<path fill="none" stroke="#63b8ff" d="M96.14,-54.51C86.89,-46.85 73.38,-35.66 62.29,-26.47"/>
<polygon fill="#63b8ff" stroke="#63b8ff" points="64.79,-24.01 54.86,-20.32 60.33,-29.4 64.79,-24.01"/>
</g>
<!-- Node5&#45;&gt;Node6 -->
<g id="edge6" class="edge">
<title>Node5&#45;&gt;Node6</title>
<path fill="none" stroke="#63b8ff" d="M111.95,-54.75C115.84,-47.88 121.39,-38.08 126.27,-29.45"/>
<polygon fill="#63b8ff" stroke="#63b8ff" points="129.31,-31.19 131.19,-20.76 123.22,-27.74 129.31,-31.19"/>
</g>
</g>
</svg>
