<?xml version="1.0" encoding="UTF-8" standalone="no"?>
<!DOCTYPE svg PUBLIC "-//W3C//DTD SVG 1.1//EN"
 "http://www.w3.org/Graphics/SVG/1.1/DTD/svg11.dtd">
<!-- Generated by graphviz version 7.0.3 (20221126.0506)
 -->
<!-- Title: Z:/home/lchinu/PDS&#45;II&#45;TP&#45;development/include/weapon.hpp Pages: 1 -->
<svg width="297pt" height="280pt"
 viewBox="0.00 0.00 296.57 280.00" xmlns="http://www.w3.org/2000/svg" xmlns:xlink="http://www.w3.org/1999/xlink">
<g id="graph0" class="graph" transform="scale(1 1) rotate(0) translate(4 276)">
<title>Z:/home/lchinu/PDS&#45;II&#45;TP&#45;development/include/weapon.hpp</title>
<!-- Node1 -->
<g id="node1" class="node">
<title>Node1</title>
<g id="a_node1"><a xlink:title="Classe principal responsavel pela lógica de weapon.">
<polygon fill="#999999" stroke="#666666" points="232,-272 102,-272 102,-231 232,-231 232,-272"/>
<text text-anchor="start" x="110" y="-260" font-family="Helvetica,sans-Serif" font-size="10.00">Z:/home/lchinu/PDS</text>
<text text-anchor="start" x="110" y="-249" font-family="Helvetica,sans-Serif" font-size="10.00">&#45;II&#45;TP&#45;development/include</text>
<text text-anchor="middle" x="167" y="-238" font-family="Helvetica,sans-Serif" font-size="10.00">/weapon.hpp</text>
</a>
</g>
</g>
<!-- Node2 -->
<g id="node2" class="node">
<title>Node2</title>
<g id="a_node2"><a xlink:href="game_events_8hpp.html" target="_top" xlink:title="Classe principal com a lógica de gameEvents.">
<polygon fill="white" stroke="#666666" points="130,-41 0,-41 0,0 130,0 130,-41"/>
<text text-anchor="start" x="8" y="-29" font-family="Helvetica,sans-Serif" font-size="10.00">Z:/home/lchinu/PDS</text>
<text text-anchor="start" x="8" y="-18" font-family="Helvetica,sans-Serif" font-size="10.00">&#45;II&#45;TP&#45;development/include</text>
<text text-anchor="middle" x="65" y="-7" font-family="Helvetica,sans-Serif" font-size="10.00">/gameEvents.hpp</text>
</a>
</g>
</g>
<!-- Node1&#45;&gt;Node2 -->
<g id="edge1" class="edge">
<title>Node1&#45;&gt;Node2</title>
<path fill="none" stroke="#63b8ff" d="M91.35,-231.01C73.88,-222.81 57.39,-211.25 47,-195 16.25,-146.9 40.55,-75.57 55.49,-41.29"/>
<polygon fill="#63b8ff" stroke="#63b8ff" points="89.75,-234.13 100.32,-234.86 92.52,-227.7 89.75,-234.13"/>
</g>
<!-- Node3 -->
<g id="node3" class="node">
<title>Node3</title>
<g id="a_node3"><a xlink:href="inventory_8hpp.html" target="_top" xlink:title="Classe principal com a lógica do inventário.">
<polygon fill="white" stroke="#666666" points="274,-118 144,-118 144,-77 274,-77 274,-118"/>
<text text-anchor="start" x="152" y="-106" font-family="Helvetica,sans-Serif" font-size="10.00">Z:/home/lchinu/PDS</text>
<text text-anchor="start" x="152" y="-95" font-family="Helvetica,sans-Serif" font-size="10.00">&#45;II&#45;TP&#45;development/include</text>
<text text-anchor="middle" x="209" y="-84" font-family="Helvetica,sans-Serif" font-size="10.00">/inventory.hpp</text>
</a>
</g>
</g>
<!-- Node1&#45;&gt;Node3 -->
<g id="edge2" class="edge">
<title>Node1&#45;&gt;Node3</title>
<path fill="none" stroke="#63b8ff" d="M184.32,-220.55C188.37,-212.47 192.29,-203.59 195,-195 203.15,-169.17 206.58,-137.93 208.01,-118.14"/>
<polygon fill="#63b8ff" stroke="#63b8ff" points="181.29,-218.79 179.72,-229.27 187.48,-222.06 181.29,-218.79"/>
</g>
<!-- Node4 -->
<g id="node4" class="node">
<title>Node4</title>
<g id="a_node4"><a xlink:href="shop_8hpp.html" target="_top" xlink:title="Classe principal com a lógica do shop.">
<polygon fill="white" stroke="#666666" points="278,-41 148,-41 148,0 278,0 278,-41"/>
<text text-anchor="start" x="156" y="-29" font-family="Helvetica,sans-Serif" font-size="10.00">Z:/home/lchinu/PDS</text>
<text text-anchor="start" x="156" y="-18" font-family="Helvetica,sans-Serif" font-size="10.00">&#45;II&#45;TP&#45;development/include</text>
<text text-anchor="middle" x="213" y="-7" font-family="Helvetica,sans-Serif" font-size="10.00">/shop.hpp</text>
</a>
</g>
</g>
<!-- Node1&#45;&gt;Node4 -->
<g id="edge9" class="edge">
<title>Node1&#45;&gt;Node4</title>
<path fill="none" stroke="#63b8ff" d="M202.01,-223.14C229.92,-198.93 266.89,-160.87 283,-118 289.41,-100.94 290.93,-93.41 283,-77 275.91,-62.34 262.86,-50.37 249.94,-41.35"/>
<polygon fill="#63b8ff" stroke="#63b8ff" points="199.84,-220.39 194.47,-229.52 204.36,-225.74 199.84,-220.39"/>
</g>
<!-- Node5 -->
<g id="node5" class="node">
<title>Node5</title>
<g id="a_node5"><a xlink:href="playable_character_8hpp.html" target="_top" xlink:title="Classe principal com a lógica de playableCharacter.">
<polygon fill="white" stroke="#666666" points="186,-195 56,-195 56,-154 186,-154 186,-195"/>
<text text-anchor="start" x="64" y="-183" font-family="Helvetica,sans-Serif" font-size="10.00">Z:/home/lchinu/PDS</text>
<text text-anchor="start" x="64" y="-172" font-family="Helvetica,sans-Serif" font-size="10.00">&#45;II&#45;TP&#45;development/include</text>
<text text-anchor="middle" x="121" y="-161" font-family="Helvetica,sans-Serif" font-size="10.00">/playableCharacter.hpp</text>
</a>
</g>
</g>
<!-- Node1&#45;&gt;Node5 -->
<g id="edge5" class="edge">
<title>Node1&#45;&gt;Node5</title>
<path fill="none" stroke="#63b8ff" d="M148.94,-221.06C143.65,-212.43 138,-203.21 133.16,-195.33"/>
<polygon fill="#63b8ff" stroke="#63b8ff" points="145.91,-222.81 154.12,-229.5 151.88,-219.15 145.91,-222.81"/>
</g>
<!-- Node3&#45;&gt;Node2 -->
<g id="edge3" class="edge">
<title>Node3&#45;&gt;Node2</title>
<path fill="none" stroke="#63b8ff" d="M160.7,-71.35C142.04,-61.63 120.99,-50.66 103.39,-41.49"/>
<polygon fill="#63b8ff" stroke="#63b8ff" points="158.96,-74.38 169.45,-75.9 162.19,-68.18 158.96,-74.38"/>
</g>
<!-- Node3&#45;&gt;Node4 -->
<g id="edge4" class="edge">
<title>Node3&#45;&gt;Node4</title>
<path fill="none" stroke="#63b8ff" d="M210.66,-65.36C211.09,-57.24 211.55,-48.7 211.94,-41.33"/>
<polygon fill="#63b8ff" stroke="#63b8ff" points="207.17,-65.11 210.13,-75.28 214.16,-65.48 207.17,-65.11"/>
</g>
<!-- Node5&#45;&gt;Node2 -->
<g id="edge6" class="edge">
<title>Node5&#45;&gt;Node2</title>
<path fill="none" stroke="#63b8ff" d="M109.71,-142.84C98.56,-112.59 81.84,-67.21 72.32,-41.38"/>
<polygon fill="#63b8ff" stroke="#63b8ff" points="106.41,-144.03 113.16,-152.21 112.98,-141.62 106.41,-144.03"/>
</g>
<!-- Node5&#45;&gt;Node3 -->
<g id="edge7" class="edge">
<title>Node5&#45;&gt;Node3</title>
<path fill="none" stroke="#63b8ff" d="M152.6,-146.57C163.53,-137.25 175.58,-126.98 185.73,-118.33"/>
<polygon fill="#63b8ff" stroke="#63b8ff" points="150.61,-143.66 145.27,-152.81 155.15,-148.99 150.61,-143.66"/>
</g>
<!-- Node5&#45;&gt;Node4 -->
<g id="edge8" class="edge">
<title>Node5&#45;&gt;Node4</title>
<path fill="none" stroke="#63b8ff" d="M119.44,-142.55C119.82,-122.51 123.03,-96.59 135,-77 144.01,-62.25 158.57,-50.32 172.69,-41.36"/>
<polygon fill="#63b8ff" stroke="#63b8ff" points="115.94,-142.38 119.5,-152.36 122.94,-142.34 115.94,-142.38"/>
</g>
</g>
</svg>
