<?xml version="1.0" encoding="UTF-8" standalone="no"?>
<!DOCTYPE svg PUBLIC "-//W3C//DTD SVG 1.1//EN"
 "http://www.w3.org/Graphics/SVG/1.1/DTD/svg11.dtd">
<!-- Generated by graphviz version 7.0.3 (20221126.0506)
 -->
<!-- Title: Z:/home/lchinu/PDS&#45;II&#45;TP&#45;development/include/weapon.hpp Pages: 1 -->
<svg width="359pt" height="214pt"
 viewBox="0.00 0.00 358.88 214.00" xmlns="http://www.w3.org/2000/svg" xmlns:xlink="http://www.w3.org/1999/xlink">
<g id="graph0" class="graph" transform="scale(1 1) rotate(0) translate(4 210)">
<title>Z:/home/lchinu/PDS&#45;II&#45;TP&#45;development/include/weapon.hpp</title>
<!-- Node1 -->
<g id="node1" class="node">
<title>Node1</title>
<g id="a_node1"><a xlink:title="Classe principal responsavel pela lógica de weapon.">
<polygon fill="#999999" stroke="#666666" points="186.36,-206 56.36,-206 56.36,-165 186.36,-165 186.36,-206"/>
<text text-anchor="start" x="64.36" y="-194" font-family="Helvetica,sans-Serif" font-size="10.00">Z:/home/lchinu/PDS</text>
<text text-anchor="start" x="64.36" y="-183" font-family="Helvetica,sans-Serif" font-size="10.00">&#45;II&#45;TP&#45;development/include</text>
<text text-anchor="middle" x="121.36" y="-172" font-family="Helvetica,sans-Serif" font-size="10.00">/weapon.hpp</text>
</a>
</g>
</g>
<!-- Node2 -->
<g id="node2" class="node">
<title>Node2</title>
<g id="a_node2"><a xlink:title=" ">
<polygon fill="#e0e0e0" stroke="#999999" points="166.86,-19 125.86,-19 125.86,0 166.86,0 166.86,-19"/>
<text text-anchor="middle" x="146.36" y="-7" font-family="Helvetica,sans-Serif" font-size="10.00">string</text>
</a>
</g>
</g>
<!-- Node1&#45;&gt;Node2 -->
<g id="edge1" class="edge">
<title>Node1&#45;&gt;Node2</title>
<path fill="none" stroke="#63b8ff" d="M81.94,-164.58C38.48,-139.91 -21.59,-96.13 8.36,-55 32.45,-21.92 81.58,-12.91 114.24,-10.74"/>
<polygon fill="#63b8ff" stroke="#63b8ff" points="114.11,-14.25 123.94,-10.29 113.79,-7.25 114.11,-14.25"/>
</g>
<!-- Node3 -->
<g id="node3" class="node">
<title>Node3</title>
<g id="a_node3"><a xlink:title=" ">
<polygon fill="#e0e0e0" stroke="#999999" points="52.86,-74 17.86,-74 17.86,-55 52.86,-55 52.86,-74"/>
<text text-anchor="middle" x="35.36" y="-62" font-family="Helvetica,sans-Serif" font-size="10.00">map</text>
</a>
</g>
</g>
<!-- Node1&#45;&gt;Node3 -->
<g id="edge2" class="edge">
<title>Node1&#45;&gt;Node3</title>
<path fill="none" stroke="#63b8ff" d="M106.96,-164.58C90.62,-141.96 64.18,-105.38 48.41,-83.56"/>
<polygon fill="#63b8ff" stroke="#63b8ff" points="51.38,-81.7 42.69,-75.65 45.71,-85.8 51.38,-81.7"/>
</g>
<!-- Node4 -->
<g id="node4" class="node">
<title>Node4</title>
<g id="a_node4"><a xlink:title=" ">
<polygon fill="#e0e0e0" stroke="#999999" points="332.36,-19 278.36,-19 278.36,0 332.36,0 332.36,-19"/>
<text text-anchor="middle" x="305.36" y="-7" font-family="Helvetica,sans-Serif" font-size="10.00">iostream</text>
</a>
</g>
</g>
<!-- Node1&#45;&gt;Node4 -->
<g id="edge3" class="edge">
<title>Node1&#45;&gt;Node4</title>
<path fill="none" stroke="#63b8ff" d="M186.63,-172.23C240.12,-158.36 312.49,-129.98 347.36,-74 357.55,-57.65 342.52,-39.33 327.69,-26.59"/>
<polygon fill="#63b8ff" stroke="#63b8ff" points="329.89,-23.87 319.89,-20.39 325.53,-29.35 329.89,-23.87"/>
</g>
<!-- Node5 -->
<g id="node5" class="node">
<title>Node5</title>
<g id="a_node5"><a xlink:title=" ">
<polygon fill="#e0e0e0" stroke="#999999" points="117.86,-74 70.86,-74 70.86,-55 117.86,-55 117.86,-74"/>
<text text-anchor="middle" x="94.36" y="-62" font-family="Helvetica,sans-Serif" font-size="10.00">iterator</text>
</a>
</g>
</g>
<!-- Node1&#45;&gt;Node5 -->
<g id="edge4" class="edge">
<title>Node1&#45;&gt;Node5</title>
<path fill="none" stroke="#63b8ff" d="M116.84,-164.58C111.85,-142.58 103.85,-107.35 98.87,-85.37"/>
<polygon fill="#63b8ff" stroke="#63b8ff" points="102.34,-84.87 96.72,-75.89 95.52,-86.42 102.34,-84.87"/>
</g>
<!-- Node6 -->
<g id="node6" class="node">
<title>Node6</title>
<g id="a_node6"><a xlink:href="utilities_8hpp.html" target="_top" xlink:title="Classe principal com a lógica de utilities.">
<polygon fill="white" stroke="#666666" points="338.36,-74 272.36,-74 272.36,-55 338.36,-55 338.36,-74"/>
<text text-anchor="middle" x="305.36" y="-62" font-family="Helvetica,sans-Serif" font-size="10.00">utilities.hpp</text>
</a>
</g>
</g>
<!-- Node1&#45;&gt;Node6 -->
<g id="edge5" class="edge">
<title>Node1&#45;&gt;Node6</title>
<path fill="none" stroke="#63b8ff" d="M152.16,-164.58C188.87,-140.84 249.39,-101.7 282.3,-80.41"/>
<polygon fill="#63b8ff" stroke="#63b8ff" points="283.8,-83.61 290.3,-75.24 280,-77.73 283.8,-83.61"/>
</g>
<!-- Node7 -->
<g id="node7" class="node">
<title>Node7</title>
<g id="a_node7"><a xlink:href="item_8hpp.html" target="_top" xlink:title="Classe principal com a lógica dos itens.">
<polygon fill="white" stroke="#666666" points="176.36,-129 122.36,-129 122.36,-110 176.36,-110 176.36,-129"/>
<text text-anchor="middle" x="149.36" y="-117" font-family="Helvetica,sans-Serif" font-size="10.00">item.hpp</text>
</a>
</g>
</g>
<!-- Node1&#45;&gt;Node7 -->
<g id="edge8" class="edge">
<title>Node1&#45;&gt;Node7</title>
<path fill="none" stroke="#63b8ff" d="M130.06,-164.6C133.56,-156.61 137.57,-147.45 141.03,-139.55"/>
<polygon fill="#63b8ff" stroke="#63b8ff" points="144.16,-141.11 144.96,-130.55 137.75,-138.31 144.16,-141.11"/>
</g>
<!-- Node6&#45;&gt;Node2 -->
<g id="edge6" class="edge">
<title>Node6&#45;&gt;Node2</title>
<path fill="none" stroke="#63b8ff" d="M278.39,-54.51C250.7,-45.28 207.62,-30.92 178.26,-21.13"/>
<polygon fill="#63b8ff" stroke="#63b8ff" points="179.39,-17.82 168.79,-17.98 177.17,-24.46 179.39,-17.82"/>
</g>
<!-- Node6&#45;&gt;Node4 -->
<g id="edge7" class="edge">
<title>Node6&#45;&gt;Node4</title>
<path fill="none" stroke="#63b8ff" d="M305.36,-54.75C305.36,-48.27 305.36,-39.16 305.36,-30.9"/>
<polygon fill="#63b8ff" stroke="#63b8ff" points="308.86,-30.96 305.36,-20.96 301.86,-30.96 308.86,-30.96"/>
</g>
<!-- Node7&#45;&gt;Node2 -->
<g id="edge11" class="edge">
<title>Node7&#45;&gt;Node2</title>
<path fill="none" stroke="#63b8ff" d="M149.11,-109.66C148.64,-92.57 147.58,-54.61 146.93,-30.92"/>
<polygon fill="#63b8ff" stroke="#63b8ff" points="150.43,-30.87 146.65,-20.97 143.43,-31.07 150.43,-30.87"/>
</g>
<!-- Node7&#45;&gt;Node3 -->
<g id="edge12" class="edge">
<title>Node7&#45;&gt;Node3</title>
<path fill="none" stroke="#63b8ff" d="M130.02,-109.51C111.82,-101.05 84.35,-88.28 63.68,-78.67"/>
<polygon fill="#63b8ff" stroke="#63b8ff" points="65.2,-75.52 54.66,-74.47 62.25,-81.86 65.2,-75.52"/>
</g>
<!-- Node7&#45;&gt;Node4 -->
<g id="edge10" class="edge">
<title>Node7&#45;&gt;Node4</title>
<path fill="none" stroke="#63b8ff" d="M166.08,-109.6C181.76,-101.05 205.68,-87.47 225.36,-74 247.38,-58.93 271.15,-39.64 287.01,-26.29"/>
<polygon fill="#63b8ff" stroke="#63b8ff" points="288.85,-29.32 294.2,-20.18 284.32,-23.99 288.85,-29.32"/>
</g>
<!-- Node7&#45;&gt;Node5 -->
<g id="edge13" class="edge">
<title>Node7&#45;&gt;Node5</title>
<path fill="none" stroke="#63b8ff" d="M140.28,-109.75C132.52,-102.27 121.15,-91.32 111.66,-82.17"/>
<polygon fill="#63b8ff" stroke="#63b8ff" points="114.36,-79.91 104.73,-75.49 109.5,-84.95 114.36,-79.91"/>
</g>
<!-- Node7&#45;&gt;Node6 -->
<g id="edge14" class="edge">
<title>Node7&#45;&gt;Node6</title>
<path fill="none" stroke="#63b8ff" d="M175.82,-109.51C201.22,-100.88 239.82,-87.76 268.28,-78.1"/>
<polygon fill="#63b8ff" stroke="#63b8ff" points="269.25,-81.46 277.59,-74.93 267,-74.84 269.25,-81.46"/>
</g>
<!-- Node8 -->
<g id="node8" class="node">
<title>Node8</title>
<g id="a_node8"><a xlink:title=" ">
<polygon fill="#e0e0e0" stroke="#999999" points="216.36,-74 174.36,-74 174.36,-55 216.36,-55 216.36,-74"/>
<text text-anchor="middle" x="195.36" y="-62" font-family="Helvetica,sans-Serif" font-size="10.00">vector</text>
</a>
</g>
</g>
<!-- Node7&#45;&gt;Node8 -->
<g id="edge9" class="edge">
<title>Node7&#45;&gt;Node8</title>
<path fill="none" stroke="#63b8ff" d="M156.95,-109.75C163.24,-102.5 172.37,-91.98 180.15,-83.02"/>
<polygon fill="#63b8ff" stroke="#63b8ff" points="182.69,-85.43 186.61,-75.59 177.41,-80.84 182.69,-85.43"/>
</g>
</g>
</svg>
